<svg class="svg-icon" style="width: 1em;height: 1em;vertical-align: middle;fill: currentColor;overflow: hidden;" viewBox="0 0 1024 1024" version="1.1" xmlns="http://www.w3.org/2000/svg"><path d="M512 512m-350.2 0a350.2 350.2 0 1 0 700.4 0 350.2 350.2 0 1 0-700.4 0Z" fill="#FFFFFF" /><path d="M512 161.8c-6.6 0-13 0.2-19.4 0.6 184.4 10 330.8 162.8 330.8 349.8S677 851.8 492.6 862c6.4 0.4 13 0.6 19.4 0.6 193.4 0 350.2-156.8 350.2-350.2S705.4 161.8 512 161.8z" fill="#E6E7E8" /><path d="M512 862.2c6.6 0 13-0.2 19.4-0.6-184.4-10-330.8-162.8-330.8-349.8S347 172.4 531.4 162.2c-6.4-0.4-13-0.6-19.4-0.6-193.4 0-350.2 156.8-350.2 350.2S318.6 862.2 512 862.2z" fill="#E6E7E8" /><path d="M512 872c-198.4 0-360-161.4-360-360S313.6 152 512 152s360 161.4 360 360-161.6 360-360 360z m0-700.6c-187.8 0-340.6 152.8-340.6 340.6S324.2 852.6 512 852.6 852.6 699.8 852.6 512 699.8 171.4 512 171.4z" fill="#402943" /><path d="M570.4 146.8c-19-3-38.6-4.6-58.4-4.6-19.8 0-39.4 1.6-58.4 4.6v730.2c19 3 38.6 4.6 58.4 4.6 19.8 0 39.4-1.6 58.4-4.6V146.8z" fill="#FCD64B" /><path d="M551 879.6c6.6-0.6 13-1.6 19.4-2.6V146.8c-6.4-1-13-1.8-19.4-2.6v735.4z" fill="#F5AB33" /><path d="M473 144.4c-6.6 0.6-13 1.6-19.4 2.6v730.2c6.4 1 13 1.8 19.4 2.6V144.4z" fill="#FFECA6" /><path d="M512 891.4c-20 0-40.2-1.6-59.8-4.8-4.8-0.8-8.2-4.8-8.2-9.6V146.8c0-4.8 3.4-8.8 8.2-9.6 39.6-6.2 80.2-6.2 119.8 0 4.8 0.8 8.2 4.8 8.2 9.6v730.2c0 4.8-3.4 8.8-8.2 9.6-19.8 3.2-40 4.8-60 4.8z m-48.6-22.8c32.2 4.4 65 4.4 97.2 0V155.2c-32.2-4.4-65-4.4-97.2 0v713.4z" fill="#402943" /><path d="M877.2 570.4c3-19 4.6-38.6 4.6-58.4 0-19.8-1.6-39.4-4.6-58.4H146.8c-3 19-4.6 38.6-4.6 58.4 0 19.8 1.6 39.4 4.6 58.4h730.4z" fill="#FCD64B" /><path d="M144.4 551c0.6 6.6 1.6 13 2.6 19.4h730.2c1-6.4 1.8-13 2.6-19.4H144.4z" fill="#F5AB33" /><path d="M879.6 473c-0.6-6.6-1.6-13-2.6-19.4H146.8c-1 6.4-1.8 13-2.6 19.4h735.4z" fill="#FFECA6" /><path d="M877.2 580H146.8c-4.8 0-8.8-3.4-9.6-8.2a377.324 377.324 0 0 1 0-120c0.8-4.8 4.8-8.2 9.6-8.2h730.2c4.8 0 8.8 3.4 9.6 8.2a377.324 377.324 0 0 1 0 120c-0.6 4.8-4.8 8.2-9.4 8.2z m-722-19.4h713.4c2.2-16.2 3.2-32.4 3.2-48.6 0-16.2-1.2-32.6-3.2-48.6H155.2c-2.2 16.2-3.2 32.4-3.2 48.6 0 16.2 1.2 32.6 3.2 48.6z" fill="#402943" /><path d="M512 512m-272.4 0a272.4 272.4 0 1 0 544.8 0 272.4 272.4 0 1 0-544.8 0Z" fill="#59C3F0" /><path d="M512 239.6c-9.8 0-19.6 0.6-29.2 1.6C619.6 255.6 726 371.4 726 512s-106.6 256.2-243.2 270.8c9.6 1 19.4 1.6 29.2 1.6 150.4 0 272.4-122 272.4-272.4s-122-272.4-272.4-272.4z" fill="#21A0D6" /><path d="M512 784.4c9.8 0 19.6-0.6 29.2-1.6C404.4 768.2 298 652.6 298 512c0-140.6 106.6-256.2 243.2-270.8-9.6-1-19.4-1.6-29.2-1.6-150.4 0-272.4 122-272.4 272.4s122 272.4 272.4 272.4z" fill="#96DCFA" /><path d="M512 794.2c-155.6 0-282.2-126.6-282.2-282.2S356.4 229.8 512 229.8 794.2 356.4 794.2 512 667.6 794.2 512 794.2z m0-544.8c-144.8 0-262.6 117.8-262.6 262.6S367.2 774.6 512 774.6 774.6 656.8 774.6 512 656.8 249.4 512 249.4z" fill="#402943" /><path d="M492.6 336.8V298c0-10.8 8.8-19.4 19.4-19.4s19.4 8.8 19.4 19.4v39c0 10.8-8.8 19.4-19.4 19.4s-19.4-8.8-19.4-19.6z" fill="#FFFFFF" /><path d="M512 366c-16 0-29.2-13-29.2-29.2V298c0-16 13-29.2 29.2-29.2 16 0 29.2 13 29.2 29.2v39c0 16-13.2 29-29.2 29z m0-77.8c-5.4 0-9.8 4.4-9.8 9.8v39c0 5.4 4.4 9.8 9.8 9.8s9.8-4.4 9.8-9.8V298c0-5.4-4.4-9.8-9.8-9.8z" fill="#402943" /><path d="M336.8 531.4H298c-10.8 0-19.4-8.8-19.4-19.4 0-10.8 8.8-19.4 19.4-19.4h39c10.8 0 19.4 8.8 19.4 19.4 0 10.8-8.8 19.4-19.6 19.4z" fill="#FFFFFF" /><path d="M336.8 541.2H298c-16 0-29.2-13-29.2-29.2 0-16 13-29.2 29.2-29.2h39c16 0 29.2 13 29.2 29.2-0.2 16-13.2 29.2-29.4 29.2zM298 502.2c-5.4 0-9.8 4.4-9.8 9.8s4.4 9.8 9.8 9.8h39c5.4 0 9.8-4.4 9.8-9.8s-4.4-9.8-9.8-9.8H298z" fill="#402943" /><path d="M531.4 687.2V726c0 10.8-8.8 19.4-19.4 19.4-10.8 0-19.4-8.8-19.4-19.4v-39c0-10.8 8.8-19.4 19.4-19.4 10.8 0 19.4 8.8 19.4 19.6z" fill="#FFFFFF" /><path d="M512 755.2c-16 0-29.2-13-29.2-29.2v-39c0-16 13-29.2 29.2-29.2 16 0 29.2 13 29.2 29.2V726c0 16.2-13.2 29.2-29.2 29.2z m0-77.8c-5.4 0-9.8 4.4-9.8 9.8V726c0 5.4 4.4 9.8 9.8 9.8s9.8-4.4 9.8-9.8v-39c0-5.2-4.4-9.6-9.8-9.6z" fill="#402943" /><path d="M687.2 492.6H726c10.8 0 19.4 8.8 19.4 19.4 0 10.8-8.8 19.4-19.4 19.4h-39c-10.8 0-19.4-8.8-19.4-19.4 0-10.8 8.8-19.4 19.6-19.4z" fill="#FFFFFF" /><path d="M726 541.2h-39c-16 0-29.2-13-29.2-29.2 0-16 13-29.2 29.2-29.2H726c16 0 29.2 13 29.2 29.2 0 16-13 29.2-29.2 29.2z m-38.8-39c-5.4 0-9.8 4.4-9.8 9.8s4.4 9.8 9.8 9.8H726c5.4 0 9.8-4.4 9.8-9.8s-4.4-9.8-9.8-9.8h-38.8z" fill="#402943" /><path d="M649.6 374.4l-165.2 110 55.2 55.2z" fill="#F05458" /><path d="M649.6 374.4L512 512l27.6 27.6z" fill="#D9383C" /><path d="M539.6 549.2c-2.6 0-5-1-6.8-2.8l-55-55c-2-2-3-5-2.8-7.8 0.2-3 1.8-5.6 4.2-7.2l165.2-110c3.8-2.6 9-2 12.2 1.2 3.2 3.2 3.8 8.4 1.2 12.2l-110 165.2c-1.6 2.4-4.2 4-7.2 4.2h-1zM499.8 486l38.2 38.2 76.6-114.8-114.8 76.6z" fill="#402943" /><path d="M374.4 649.6l165.2-110-55.2-55.2z" fill="#FCD64B" /><path d="M374.4 649.6L512 512l27.6 27.6z" fill="#F5AB33" /><path d="M374.4 659.4c-2.6 0-5-1-6.8-2.8-3.2-3.2-3.8-8.4-1.2-12.2l110-165.2c1.6-2.4 4.2-4 7.2-4.2 2.8-0.2 5.8 0.8 7.8 2.8l55 55c2 2 3 5 2.8 7.8-0.2 3-1.8 5.6-4.2 7.2l-165.2 110c-1.6 1-3.6 1.6-5.4 1.6z m111.6-159.6l-76.6 114.8 114.8-76.6-38.2-38.2z" fill="#402943" /></svg>