<svg class="svg-icon" style="width: 1em;height: 1em;vertical-align: middle;fill: currentColor;overflow: hidden;" viewBox="0 0 1024 1024" version="1.1" xmlns="http://www.w3.org/2000/svg"><path d="M103.4 356.4v389.2c0 43 34.8 77.8 77.8 77.8h661.6c43 0 77.8-34.8 77.8-77.8V356.4H103.4z" fill="#FFFFFF" /><path d="M823.4 356.4v389.2c0 43-34.8 77.8-77.8 77.8h97.4c43 0 77.8-34.8 77.8-77.8V356.4h-97.4zM200.6 356.4v389.2c0 43 34.8 77.8 77.8 77.8H181.2c-43 0-77.8-34.8-77.8-77.8V356.4h97.2z" fill="#E6E7E8" /><path d="M842.8 833H181.2c-48.2 0-87.6-39.2-87.6-87.6V356.4c0-5.4 4.4-9.8 9.8-9.8h817.2c5.4 0 9.8 4.4 9.8 9.8v389.2c0 48.2-39.4 87.4-87.6 87.4zM113 366v379.4c0 37.6 30.6 68.2 68.2 68.2h661.6c37.6 0 68.2-30.6 68.2-68.2V366h-798z" fill="#402943" /><path d="M920.6 745.6c0-43-34.8-77.8-77.8-77.8h-39V200.6h39c43 0 77.8 34.8 77.8 77.8v467.2z" fill="#FFFFFF" /><path d="M881.6 278.6c0-43-34.8-77.8-77.8-77.8h38.8c43 0 77.8 34.8 77.8 77.8v467c0-28.8-15.6-54-39-67.4V278.6z" fill="#E6E7E8" /><path d="M920.6 755.2c-5.4 0-9.8-4.4-9.8-9.8 0-37.6-30.6-68.2-68.2-68.2h-39c-2.6 0-5-1-6.8-2.8-1.8-1.8-2.8-4.2-2.8-6.8V200.6c0-5.4 4.4-9.8 9.8-9.8h39c48.2 0 87.6 39.2 87.6 87.6v467c0 5.4-4.4 9.8-9.8 9.8zM842.8 658c27.4 0 52 12.8 68.2 32.6v-412c0-37.6-30.6-68.2-68.2-68.2h-29.2V658h29.2z" fill="#402943" /><path d="M842.8 555.8c-2.6 0-4.8-2.2-4.8-4.8V200.6c0-2.6 2.2-4.8 4.8-4.8 2.6 0 4.8 2.2 4.8 4.8v350.2c0 2.8-2.2 5-4.8 5zM842.8 672.6c-2.6 0-4.8-2.2-4.8-4.8V590c0-2.6 2.2-4.8 4.8-4.8 2.6 0 4.8 2.2 4.8 4.8v77.8c0 2.6-2.2 4.8-4.8 4.8z" fill="#402943" /><path d="M103.4 745.6c0-43 34.8-77.8 77.8-77.8h39V200.6H181.2c-43 0-77.8 34.8-77.8 77.8v467.2z" fill="#FFFFFF" /><path d="M142.4 278.4c0-43 34.8-77.8 77.8-77.8H181.4c-43 0-77.8 34.8-77.8 77.8v467c0-28.8 15.6-54 39-67.4V278.4z" fill="#E6E7E8" /><path d="M103.4 755.2c-5.4 0-9.8-4.4-9.8-9.8V278.6c0-48.2 39.2-87.6 87.6-87.6h39c5.4 0 9.8 4.4 9.8 9.8v467c0 2.6-1 5-2.8 6.8-1.8 1.8-4.2 2.8-6.8 2.8H181.4c-37.6 0-68.2 30.6-68.2 68.2-0.2 5.2-4.4 9.6-9.8 9.6z m77.8-544.8c-37.6 0-68.2 30.6-68.2 68.2v412c16-19.8 40.6-32.6 68.2-32.6h29.2V210.4H181.2z" fill="#402943" /><path d="M181.2 555.8c-2.6 0-4.8-2.2-4.8-4.8V200.6c0-2.6 2.2-4.8 4.8-4.8 2.6 0 4.8 2.2 4.8 4.8v350.2c0 2.8-2.2 5-4.8 5zM181.2 672.6c-2.6 0-4.8-2.2-4.8-4.8V590c0-2.6 2.2-4.8 4.8-4.8 2.6 0 4.8 2.2 4.8 4.8v77.8c0 2.6-2.2 4.8-4.8 4.8z" fill="#402943" /><path d="M317.4 434.2H512v233.4h-194.6z" fill="#E6E7E8" /><path d="M512 677.4h-194.6c-5.4 0-9.8-4.4-9.8-9.8V434.2c0-5.4 4.4-9.8 9.8-9.8H512c5.4 0 9.8 4.4 9.8 9.8v233.4c0 5.4-4.4 9.8-9.8 9.8z m-184.8-19.4h175V444h-175v214z" fill="#402943" /><path d="M434.2 551h311.4v194.6H434.2z" fill="#FCD64B" /><path d="M745.4 755.2H434.2c-5.4 0-9.8-4.4-9.8-9.8v-194.6c0-5.4 4.4-9.8 9.8-9.8h311.4c5.4 0 9.8 4.4 9.8 9.8v194.6c-0.2 5.4-4.6 9.8-10 9.8zM444 735.8h291.8v-175H444v175z" fill="#402943" /><path d="M609.2 200.6H726v212.6h-116.8z" fill="#59C3F0" /><path d="M706.8 200.8l-0.4 212.8 19.6-0.2 0.4-212.6z" fill="#21A0D6" /><path d="M609.8 200.8l-0.6 212.8 19.6-0.2 0.6-212.6z" fill="#96DCFA" /><path d="M726 423.2h-116.8c-5.4 0-9.8-4.4-9.8-9.8V200.6c0-2.6 1-5 2.8-6.8 1.8-1.8 4.2-2.8 6.8-2.8h116.8c5.4 0 9.8 4.4 9.8 9.8v212.6c0 2.6-1 5-2.8 6.8-1.8 1.8-4.2 3-6.8 3z m-107-19.6h97.2v-193.2h-97.2v193.2z" fill="#402943" /><path d="M726 413.4h-116.8l58.2 136.2z" fill="#FFFFFF" /><path d="M706.6 413.4l-48.8 113.4 9.6 22.8 58.6-136.2z" fill="#E6E7E8" /><path d="M667.4 559.2c-4 0-7.4-2.4-9-6l-58.2-136.2c-1.2-3-1-6.4 0.8-9.2 1.8-2.8 4.8-4.4 8.2-4.4H726c3.2 0 6.4 1.6 8.2 4.4 1.8 2.8 2.2 6.2 0.8 9.2l-58.6 136.2c-1.6 3.8-5 6-9 6z m-43.4-136l43.4 101.8 43.8-101.8H624z" fill="#402943" /><path d="M726 413.4h-116.8" fill="#FFFFFF" /><path d="M726 423.2h-116.8c-5.4 0-9.8-4.4-9.8-9.8s4.4-9.8 9.8-9.8H726c5.4 0 9.8 4.4 9.8 9.8s-4.4 9.8-9.8 9.8z" fill="#402943" /><path d="M687.2 413.4V200.6" fill="#FFFFFF" /><path d="M687.2 423c-5.4 0-9.8-4.4-9.8-9.8V200.6c0-5.4 4.4-9.8 9.8-9.8s9.8 4.4 9.8 9.8v212.6c0 5.6-4.4 9.8-9.8 9.8z" fill="#402943" /><path d="M648.4 413.4V200.6" fill="#FFFFFF" /><path d="M648.4 423c-5.4 0-9.8-4.4-9.8-9.8V200.6c0-5.4 4.4-9.8 9.8-9.8s9.8 4.4 9.8 9.8v212.6c-0.2 5.6-4.4 9.8-9.8 9.8z" fill="#402943" /><path d="M643 492.6H692l-24.6 57z" fill="#59C3F0" /><path d="M672.6 492.6l-14.8 34.2 5.4 12.8 4.2 10 20.2-47 4.4-10z" fill="#21A0D6" /><path d="M667.4 559.2c-4 0-7.4-2.4-9-6L634 496.2c-1.2-3-1-6.4 0.8-9.2 1.8-2.8 4.8-4.4 8.2-4.4H692c3.2 0 6.4 1.6 8.2 4.4 1.8 2.8 2.2 6.2 0.8 9.2l-24.6 57c-1.6 3.8-5 6-9 6z m-9.6-57l9.6 22.6 9.8-22.6h-19.4z" fill="#402943" /></svg>