<svg class="svg-icon" style="width: 1em;height: 1em;vertical-align: middle;fill: currentColor;overflow: hidden;" viewBox="0 0 1024 1024" version="1.1" xmlns="http://www.w3.org/2000/svg"><path d="M687.2 298c-107.4 0-194.6 87.2-194.6 194.6 0 107.4 87.2 194.6 194.6 194.6 107.4 0 194.6-87.2 194.6-194.6 0-107.6-87.2-194.6-194.6-194.6z m0 233.4c-21.4 0-39-17.4-39-39 0-21.4 17.4-39 39-39 21.4 0 39 17.4 39 39-0.2 21.6-17.6 39-39 39z" fill="#FCD64B" /><path d="M685.8 298c-7 0-14 0.4-20.8 1.2 97.6 10.4 173.8 93 173.8 193.4s-76 183-173.8 193.4c6.8 0.8 13.8 1.2 20.8 1.2 107.4 0 194.6-87.2 194.6-194.6 0-107.6-87-194.6-194.6-194.6z" fill="#F5AB33" /><path d="M685.8 687.2c7 0 14-0.4 20.8-1.2-97.6-10.4-173.8-93-173.8-193.4s76-183 173.8-193.4c-6.8-0.8-13.8-1.2-20.8-1.2-107.4 0-194.6 87.2-194.6 194.6s87.2 194.6 194.6 194.6z" fill="#FFECA6" /><path d="M687.2 696.8c-112.6 0-204.4-91.6-204.4-204.4 0-112.6 91.6-204.4 204.4-204.4 112.6 0 204.4 91.6 204.4 204.4-0.2 112.8-91.8 204.4-204.4 204.4z m0-389.2c-102 0-184.8 83-184.8 184.8 0 102 83 184.8 184.8 184.8 102 0 184.8-83 184.8-184.8 0-101.8-83-184.8-184.8-184.8z m0 233.6c-26.8 0-48.6-21.8-48.6-48.6s21.8-48.6 48.6-48.6 48.6 21.8 48.6 48.6-21.8 48.6-48.6 48.6z m0-77.8c-16 0-29.2 13-29.2 29.2 0 16 13 29.2 29.2 29.2 16 0 29.2-13 29.2-29.2s-13.2-29.2-29.2-29.2z" fill="#402943" /><path d="M685.8 413.4c-2.8 0-5.6 0.2-8.4 0.4 39.6 4.2 70.6 37.8 70.6 78.6s-31 74.4-70.6 78.6c2.8 0.2 5.6 0.4 8.4 0.4 43.6 0 79-35.4 79-79 0.2-43.6-35.2-79-79-79z" fill="#F5AB33" /><path d="M685.8 571.6c2.8 0 5.6-0.2 8.4-0.4-39.6-4.2-70.6-37.8-70.6-78.6s31-74.4 70.6-78.6c-2.8-0.2-5.6-0.4-8.4-0.4-43.6 0-79 35.4-79 79s35.4 79 79 79z" fill="#FFECA6" /><path d="M687.2 575.2c-45.6 0-82.6-37-82.6-82.6 0-45.6 37-82.6 82.6-82.6 45.6 0 82.6 37 82.6 82.6 0 45.6-37 82.6-82.6 82.6z m0-155.6c-40.2 0-73 32.8-73 73s32.8 73 73 73 73-32.8 73-73c-0.2-40.2-32.8-73-73-73z" fill="#402943" /><path d="M200.6 881.8c-32.2 0-58.4-26.2-58.4-58.4s26.2-58.4 58.4-58.4h428c32.2 0 58.4-26.2 58.4-58.4v116.8c0 32.2-26.2 58.4-58.4 58.4h-428z" fill="#59C3F0" /><path d="M628.8 765v58.4c0 32.2-26.2 58.4-58.4 58.4h58.4c32.2 0 58.4-26.2 58.4-58.4v-116.8c0 32.2-26.2 58.4-58.4 58.4z" fill="#21A0D6" /><path d="M259 881.8c-32.2 0-58.4-26.2-58.4-58.4s26.2-58.4 58.4-58.4h-58.4c-32.2 0-58.4 26.2-58.4 58.4s26.2 58.4 58.4 58.4h58.4z" fill="#96DCFA" /><path d="M628.8 891.4h-428c-37.6 0-68.2-30.6-68.2-68.2s30.6-68.2 68.2-68.2h428c26.8 0 48.6-21.8 48.6-48.6 0-5.4 4.4-9.8 9.8-9.8s9.8 4.4 9.8 9.8v116.8c-0.2 37.6-30.6 68.2-68.2 68.2z m-428.2-116.8c-26.8 0-48.6 21.8-48.6 48.6S173.8 872 200.6 872h428c26.8 0 48.6-21.8 48.6-48.6v-69.2c-12.4 12.6-29.6 20.4-48.6 20.4h-428z" fill="#402943" /><path d="M628.8 765c32.2 0 58.4-26.2 58.4-58.4v-506c0-32.2-26.2-58.4-58.4-58.4h-428c-32.2 0-58.4 26.2-58.4 58.4v622.6c0-32.2 26.2-58.4 58.4-58.4l428 0.2z" fill="#FFFFFF" /><path d="M628.8 142.2h-58.4c32.2 0 58.4 26.2 58.4 58.4v506c0 32.2-26.2 58.4-58.4 58.4h58.4c32.2 0 58.4-26.2 58.4-58.4v-506c0-32.2-26.2-58.4-58.4-58.4zM200.6 200.6c0-32.2 26.2-58.4 58.4-58.4h-58.4c-32.2 0-58.4 26.2-58.4 58.4v622.6c0-32.2 26.2-58.4 58.4-58.4V200.6z" fill="#E6E7E8" /><path d="M142.2 833c-5.4 0-9.8-4.4-9.8-9.8V200.6c0-37.6 30.6-68.2 68.2-68.2h428c37.6 0 68.2 30.6 68.2 68.2v506c0 37.6-30.6 68.2-68.2 68.2h-428c-26.8 0-48.6 21.8-48.6 48.6 0 5.4-4.4 9.6-9.8 9.6zM200.6 152C173.8 152 152 173.8 152 200.6v575c12.4-12.6 29.6-20.4 48.6-20.4h428c26.8 0 48.6-21.8 48.6-48.6v-506c0-26.8-21.8-48.6-48.6-48.6h-428z" fill="#402943" /><path d="M200.6 225c-2.6 0-4.8-2.2-4.8-4.8v-78c0-2.6 2.2-4.8 4.8-4.8 2.6 0 4.8 2.2 4.8 4.8V220c0.2 2.8-2 5-4.8 5zM200.6 769.8c-2.6 0-4.8-2.2-4.8-4.8v-506c0-2.6 2.2-4.8 4.8-4.8 2.6 0 4.8 2.2 4.8 4.8v506c0.2 2.6-2 4.8-4.8 4.8z" fill="#402943" /><path d="M528.8 298h-169.8c-39 0-70.8 31.6-70.8 70.8 0 39 31.6 70.8 70.8 70.8 29 0 54-17.4 64.8-42.4H464c11 25 35.8 42.4 64.8 42.4 39 0 70.8-31.6 70.8-70.8 0-39.2-31.8-70.8-70.8-70.8z" fill="#E6E7E8" /><path d="M359 317.4h169.8c35.8 0 65.4 26.6 70 61 0.4-3.2 0.6-6.4 0.6-9.8 0-39-31.6-70.8-70.8-70.8h-169.8c-39 0-70.8 31.6-70.8 70.8 0 3.4 0.2 6.6 0.6 9.8 5-34.4 34.6-61 70.4-61z" fill="#FFFFFF" /><path d="M528.8 449.2c-29.8 0-57-16.4-71-42.4h-28c-14 26-41.2 42.4-71 42.4-44.4 0-80.4-36.2-80.4-80.4 0-44.4 36.2-80.4 80.4-80.4h169.8c44.4 0 80.4 36.2 80.4 80.4 0.2 44.2-35.8 80.4-80.2 80.4z m-105-62H464c3.8 0 7.4 2.2 9 5.8 9.8 22.2 31.6 36.6 56 36.6 33.6 0 61-27.4 61-61s-27.4-61-61-61h-169.8c-33.6 0-61 27.4-61 61s27.4 61 61 61c24.2 0 46.2-14.4 56-36.6 1.2-3.4 4.8-5.8 8.6-5.8z" fill="#402943" /><path d="M528.8 347.4m-9.8 0a9.8 9.8 0 1 0 19.6 0 9.8 9.8 0 1 0-19.6 0Z" fill="#402943" /><path d="M528.8 390m-9.8 0a9.8 9.8 0 1 0 19.6 0 9.8 9.8 0 1 0-19.6 0Z" fill="#402943" /><path d="M550 368.8m-9.8 0a9.8 9.8 0 1 0 19.6 0 9.8 9.8 0 1 0-19.6 0Z" fill="#402943" /><path d="M507.6 368.8m-9.8 0a9.8 9.8 0 1 0 19.6 0 9.8 9.8 0 1 0-19.6 0Z" fill="#402943" /><path d="M349.2 340.4h19.4v56.6h-19.4z" fill="#402943" /><path d="M330.6 359h56.6v19.4h-56.6z" fill="#402943" /><path d="M451 364.2h-14.2c-5.4 0-9.8-4.4-9.8-9.8s4.4-9.8 9.8-9.8h14.2c5.4 0 9.8 4.4 9.8 9.8 0 5.6-4.4 9.8-9.8 9.8z" fill="#402943" /><path d="M346.6 570.4h194.6v39h-194.6z" fill="#FFFFFF" /><path d="M346.6 589.8h194.6v19.4h-194.6z" fill="#E6E7E8" /><path d="M541.2 619h-194.6c-5.4 0-9.8-4.4-9.8-9.8v-39c0-5.4 4.4-9.8 9.8-9.8h194.6c5.4 0 9.8 4.4 9.8 9.8v39c0 5.4-4.4 9.8-9.8 9.8z m-184.8-19.4h175.2v-19.4h-175.2v19.4z" fill="#402943" /></svg>