<svg class="svg-icon" style="width: 1em;height: 1em;vertical-align: middle;fill: currentColor;overflow: hidden;" viewBox="0 0 1024 1024" version="1.1" xmlns="http://www.w3.org/2000/svg"><path d="M278.4 784.4h467v77.8H278.4z" fill="#59C3F0" /><path d="M278.4 784.6h39v77.8h-39z" fill="#96DCFA" /><path d="M706.6 784.6h39v77.8h-39z" fill="#21A0D6" /><path d="M745.6 872H278.4c-5.4 0-9.8-4.4-9.8-9.8v-77.8c0-5.4 4.4-9.8 9.8-9.8h467c5.4 0 9.8 4.4 9.8 9.8v77.8c0 5.4-4.4 9.8-9.6 9.8z m-457.4-19.4h447.6v-58.4H288.2v58.4z" fill="#402943" /><path d="M239.6 862.2h544.8v39H239.6z" fill="#59C3F0" /><path d="M239.6 862.2h39v39h-39z" fill="#96DCFA" /><path d="M745.6 862.2h39v39h-39z" fill="#21A0D6" /><path d="M784.4 910.8H239.6c-5.4 0-9.8-4.4-9.8-9.8V862c0-5.4 4.4-9.8 9.8-9.8h544.8c5.4 0 9.8 4.4 9.8 9.8v39c0 5.6-4.4 9.8-9.8 9.8z m-535-19.4h525.4V872H249.4v19.4z" fill="#402943" /><path d="M745.604 239.54h-467v-77.8h467z" fill="#59C3F0" /><path d="M278.4 161.8h39v77.8h-39z" fill="#96DCFA" /><path d="M706.6 161.8h39v77.8h-39z" fill="#21A0D6" /><path d="M745.6 249.4H278.4c-5.4 0-9.8-4.4-9.8-9.8V161.8c0-5.4 4.4-9.8 9.8-9.8h467c5.4 0 9.8 4.4 9.8 9.8v77.8c0 5.4-4.4 9.8-9.6 9.8z m-457.4-19.6h447.6V171.4H288.2v58.4z" fill="#402943" /><path d="M784.4 161.784H239.6v-39h544.8z" fill="#59C3F0" /><path d="M239.6 122.8h39v39h-39z" fill="#96DCFA" /><path d="M745.6 122.8h39v39h-39z" fill="#21A0D6" /><path d="M784.4 171.4H239.6c-5.4 0-9.8-4.4-9.8-9.8V122.8c0-5.4 4.4-9.8 9.8-9.8h544.8c5.4 0 9.8 4.4 9.8 9.8v39c0 5.4-4.4 9.6-9.8 9.6zM249.4 152h525.4v-19.4H249.4V152z" fill="#402943" /><path d="M687.2 309.6v-70H336.8v70c0 90.2 68.2 164.4 155.6 174v56.6c-87.6 9.6-155.6 83.8-155.6 174v70h350.2v-70c0-90.2-68.2-164.4-155.6-174v-56.6c87.6-9.6 155.8-83.8 155.8-174z" fill="#FFFFFF" /><path d="M687.2 309.6v-70h-39v70c0 90.2-68.2 164.4-155.6 174v56.6c87.6 9.6 155.6 83.8 155.6 174v70h39v-70c0-90.2-68.2-164.4-155.6-174v-56.6c87.4-9.6 155.6-83.8 155.6-174z" fill="#E6E7E8" /><path d="M336.8 714.4v70h39v-70c0-90.2 68.2-164.4 155.6-174v-56.6c-87.6-9.6-155.6-83.8-155.6-174v-70h-39v70c0 90.2 68.2 164.4 155.6 174v56.6c-87.4 9.6-155.6 83.8-155.6 174z" fill="#E6E7E8" /><path d="M687.2 794.2H336.8c-5.4 0-9.8-4.4-9.8-9.8v-70c0-91.4 66.4-168.4 155.6-182.6v-39.6c-89.4-14.2-155.6-91.2-155.6-182.6v-70c0-2.6 1-5 2.8-6.8 1.8-1.8 4.2-2.8 6.8-2.8h350.2c5.4 0 9.8 4.4 9.8 9.8v70c0 91.4-66.4 168.4-155.6 182.6V532c89.4 14.2 155.6 91.2 155.6 182.6v70c0 2.6-1 5-2.8 6.8-1.6 1.8-4 2.8-6.6 2.8z m-340.6-19.6h330.8v-60.4c0-84.4-63.2-155-147-164.4-5-0.6-8.6-4.8-8.6-9.6v-56.6c0-5 3.8-9.2 8.6-9.6 83.8-9.2 147-80 147-164.4v-60.4H346.6v60.4c0 84.4 63.2 155 147 164.4 5 0.6 8.6 4.8 8.6 9.6v56.6c0 5-3.8 9.2-8.6 9.6-83.8 9.2-147 80-147 164.4v60.4z" fill="#402943" /></svg>