<svg class="svg-icon" style="width: 1em;height: 1em;vertical-align: middle;fill: currentColor;overflow: hidden;" viewBox="0 0 1024 1024" version="1.1" xmlns="http://www.w3.org/2000/svg"><path d="M473 200.6h77.8v77.8h-77.8z" fill="#59C3F0" /><path d="M531.2 200.6h19.8v77.8h-19.8z" fill="#21A0D6" /><path d="M473 200.6h19.8v77.8h-19.8z" fill="#96DCFA" /><path d="M551 288.2h-77.8c-5.4 0-9.8-4.4-9.8-9.8v-77.8c0-5.4 4.4-9.8 9.8-9.8h77.8c5.4 0 9.8 4.4 9.8 9.8v77.8c-0.2 5.4-4.6 9.8-9.8 9.8z m-68.2-19.4h58.4v-58.4h-58.4v58.4z" fill="#402943" /><path d="M901.2 628.8c0-86-69.6-155.6-155.6-155.6H278.4c-86 0-155.6 69.6-155.6 155.6h778.4z" fill="#59C3F0" /><path d="M745.6 473h-39c86 0 155.6 69.6 155.6 155.6h39c0-85.8-69.8-155.6-155.6-155.6z" fill="#21A0D6" /><path d="M278.6 473h39c-86 0-155.6 69.6-155.6 155.6H122.8c0-85.8 69.8-155.6 155.8-155.6z" fill="#96DCFA" /><path d="M901.2 638.4H122.8c-5.4 0-9.8-4.4-9.8-9.8 0-91.2 74.2-165.4 165.4-165.4h467c91.2 0 165.4 74.2 165.4 165.4 0 5.6-4.2 9.8-9.6 9.8z m-768.4-19.4h758.2c-5-76-68.4-136.2-145.6-136.2H278.4c-77.2 0-140.4 60.2-145.6 136.2z" fill="#402943" /><path d="M278.6 473c0-129 104.6-233.4 233.4-233.4 129 0 233.4 104.6 233.4 233.4H278.6z" fill="#FFFFFF" /><path d="M512 239.6c-6.6 0-13 0.2-19.4 0.8 119.8 9.8 214 110.2 214 232.6h39c-0.2-128.8-104.6-233.4-233.6-233.4z" fill="#E6E7E8" /><path d="M512 239.6c6.6 0 13 0.2 19.4 0.8-119.8 9.8-214 110.2-214 232.6h-39c0.2-128.8 104.6-233.4 233.6-233.4z" fill="#E6E7E8" /><path d="M745.6 482.8H278.6c-5.4 0-9.8-4.4-9.8-9.8 0-134.2 109.2-243.2 243.2-243.2 134.2 0 243.2 109.2 243.2 243.2 0 5.4-4.4 9.8-9.6 9.8z m-457.2-19.4h447.2c-5.2-118.8-103.4-214-223.6-214-120.2 0-218.4 95-223.6 214z" fill="#402943" /><path d="M278.6 745.6c-21.4 0-39-17.4-39-39v-77.8h544.8v77.8c0 21.4-17.4 39-39 39H278.6z" fill="#FCD64B" /><path d="M745.6 628.8v77.8c0 21.4-17.4 39-39 39h39c21.4 0 39-17.4 39-39v-77.8h-39z" fill="#F5AB33" /><path d="M278.4 628.8v77.8c0 21.4 17.4 39 39 39h-39c-21.4 0-39-17.4-39-39v-77.8h39z" fill="#FFECA6" /><path d="M745.6 755.2H278.6c-26.8 0-48.6-21.8-48.6-48.6v-77.8c0-5.4 4.4-9.8 9.8-9.8h544.8c5.4 0 9.8 4.4 9.8 9.8v77.8c-0.2 26.8-22 48.6-48.8 48.6z m-496.2-116.8v68.2c0 16 13 29.2 29.2 29.2h467c16 0 29.2-13 29.2-29.2v-68.2H249.4z" fill="#402943" /><path d="M512 142.2m-19.4 0a19.4 19.4 0 1 0 38.8 0 19.4 19.4 0 1 0-38.8 0Z" fill="#FCD64B" /><path d="M512 171.4c-16 0-29.2-13-29.2-29.2S496 113.2 512 113.2s29.2 13 29.2 29.2S528 171.4 512 171.4z m0-38.8c-5.4 0-9.8 4.4-9.8 9.8s4.4 9.8 9.8 9.8 9.8-4.4 9.8-9.8-4.4-9.8-9.8-9.8z" fill="#402943" /><path d="M512 161.8v38.8" fill="#FFFFFF" /><path d="M512 210.4c-5.4 0-9.8-4.4-9.8-9.8V161.8c0-5.4 4.4-9.8 9.8-9.8s9.8 4.4 9.8 9.8v39c0 5.2-4.4 9.6-9.8 9.6z" fill="#402943" /><path d="M896.2 594.6H127.8c-2.6 0-4.8-2.2-4.8-4.8s2.2-4.8 4.8-4.8h768.6c2.6 0 4.8 2.2 4.8 4.8s-2.2 4.8-5 4.8z" fill="#402943" /><path d="M784.4 672.6H239.6c-2.6 0-4.8-2.2-4.8-4.8 0-2.6 2.2-4.8 4.8-4.8h544.8c2.6 0 4.8 2.2 4.8 4.8 0 2.6-2 4.8-4.8 4.8z" fill="#402943" /><path d="M317.4 833c-5.4 0-9.8-4.4-9.8-9.8v-116.8c0-5.4 4.4-9.8 9.8-9.8s9.8 4.4 9.8 9.8v116.8c0 5.6-4.4 9.8-9.8 9.8z" fill="#402943" /><path d="M434.2 910.8c-5.4 0-9.8-4.4-9.8-9.8v-116.8c0-5.4 4.4-9.8 9.8-9.8s9.8 4.4 9.8 9.8v116.8c-0.2 5.6-4.4 9.8-9.8 9.8z" fill="#402943" /><path d="M589.8 910.8c-5.4 0-9.8-4.4-9.8-9.8v-116.8c0-5.4 4.4-9.8 9.8-9.8s9.8 4.4 9.8 9.8v116.8c0 5.6-4.4 9.8-9.8 9.8z" fill="#402943" /><path d="M706.6 833c-5.4 0-9.8-4.4-9.8-9.8v-116.8c0-5.4 4.4-9.8 9.8-9.8s9.8 4.4 9.8 9.8v116.8c0 5.6-4.4 9.8-9.8 9.8z" fill="#402943" /></svg>