<svg class="svg-icon" style="width: 1em;height: 1em;vertical-align: middle;fill: currentColor;overflow: hidden;" viewBox="0 0 1024 1024" version="1.1" xmlns="http://www.w3.org/2000/svg"><path d="M726 881.8c0 32.2-26 58.2-58.4 58.2H317.4c-32.2 0-58.4-26.2-58.4-58.4V142.2c0-32.2 26.2-58.4 58.4-58.4h350.2C700 84 726 110 726 142.2v739.6z" fill="#FFFFFF" /><path d="M667.6 84h-58.4c32.2 0 58.4 26.2 58.4 58.4v739.4c0 32.2-26.2 58.4-58.4 58.4h58.4C700 940 726 914 726 881.8V142.2C726 110 700 84 667.6 84zM317.4 940h58.4c-32.2 0-58.4-26.2-58.4-58.4V142.2c0-32.2 26.2-58.4 58.4-58.4h-58.4c-32.2 0-58.4 26.2-58.4 58.4v739.4c0 32.4 26.2 58.4 58.4 58.4z" fill="#E6E7E8" /><path d="M667.6 949.8H317.4c-37.6 0-68.2-30.6-68.2-68.2V142.2c0-37.6 30.6-68.2 68.2-68.2h350.2c37.6 0 68.2 30.6 68.2 68.2v739.4c0 37.6-30.6 68.2-68.2 68.2zM317.4 93.6c-26.8 0-48.6 21.8-48.6 48.6v739.4c0 26.8 21.8 48.6 48.6 48.6h350.2c26.8 0 48.6-21.8 48.6-48.6V142.2c0-26.8-21.8-48.6-48.6-48.6H317.4z" fill="#402943" /><path d="M259 200.6H726v583.8H259z" fill="#59C3F0" /><path d="M259 200.6h58.4v583.8h-58.4z" fill="#96DCFA" /><path d="M667.6 200.6H726v583.8h-58.4z" fill="#21A0D6" /><path d="M726 794.2H259c-5.4 0-9.8-4.4-9.8-9.8V200.6c0-5.4 4.4-9.8 9.8-9.8H726c5.4 0 9.8 4.4 9.8 9.8v583.8c0 5.4-4.4 9.8-9.8 9.8z m-457.2-19.6h447.6V210.4H268.8v564.2z" fill="#402943" /><path d="M551 891.4h-116.8c-16 0-29.2-13-29.2-29.2 0-16 13-29.2 29.2-29.2h116.8c16 0 29.2 13 29.2 29.2s-13.2 29.2-29.2 29.2z m-116.8-38.8c-5.4 0-9.8 4.4-9.8 9.8s4.4 9.8 9.8 9.8h116.8c5.4 0 9.8-4.4 9.8-9.8s-4.4-9.8-9.8-9.8h-116.8z" fill="#402943" /><path d="M570.4 152h-155.6c-5.4 0-9.8-4.4-9.8-9.8s4.4-9.8 9.8-9.8h155.6c5.4 0 9.8 4.4 9.8 9.8s-4.4 9.8-9.8 9.8zM375.8 152h-39c-5.4 0-9.8-4.4-9.8-9.8s4.4-9.8 9.8-9.8h39c5.4 0 9.8 4.4 9.8 9.8s-4.4 9.8-9.8 9.8z" fill="#402943" /><path d="M667.6 473H434.2c-53.8 0-97.2 43.6-97.2 97.2 0 53.8 43.6 97.2 97.2 97.2 39.8 0 74.2-24 89.2-58.4h55.2c15 34.4 49.2 58.4 89.2 58.4 53.8 0 97.2-43.6 97.2-97.2s-43.6-97.2-97.4-97.2z" fill="#FFFFFF" /><path d="M667.6 648.2c-39.8 0-74.2-24-89.2-58.4h-55.2c-15 34.4-49.2 58.4-89.2 58.4-50.4 0-92-38.4-96.8-87.6-0.4 3.2-0.4 6.4-0.4 9.8 0 53.8 43.6 97.2 97.2 97.2 39.8 0 74.2-24 89.2-58.4h55.2c15 34.4 49.2 58.4 89.2 58.4 53.8 0 97.2-43.6 97.2-97.2 0-3.2-0.2-6.6-0.4-9.8-4.8 49.2-46.2 87.6-96.8 87.6z" fill="#E6E7E8" /><path d="M434.2 677.4c-59 0-107-48-107-107s48-107 107-107h233.6c59 0 107 48 107 107s-48 107-107 107c-40.4 0-77.2-22.8-95.4-58.4h-42.8c-18.4 35.6-55 58.4-95.4 58.4z m0-194.6c-48.2 0-87.6 39.2-87.6 87.6s39.2 87.6 87.6 87.6c34.8 0 66.4-20.6 80.2-52.6 1.6-3.6 5-5.8 9-5.8h55.2c3.8 0 7.4 2.2 9 5.8 14 32 45.4 52.6 80.2 52.6 48.2 0 87.6-39.2 87.6-87.6 0-48.2-39.2-87.6-87.6-87.6H434.2z" fill="#402943" /><path d="M531.4 434.2h39v39h-39z" fill="#E6E7E8" /><path d="M531.4 453.6h39v19.4h-39z" fill="#BCBEC0" /><path d="M570.4 482.8h-39c-5.4 0-9.8-4.4-9.8-9.8V434c0-5.4 4.4-9.8 9.8-9.8h39c5.4 0 9.8 4.4 9.8 9.8v39c0 5.4-4.4 9.8-9.8 9.8z m-29.2-19.4h19.4V444h-19.4v19.4z" fill="#402943" /><path d="M667.6 570.4m-58.4 0a58.4 58.4 0 1 0 116.8 0 58.4 58.4 0 1 0-116.8 0Z" fill="#E6E7E8" /><path d="M667.6 512c-3.4 0-6.6 0.2-9.8 0.8 27.6 4.6 48.6 28.6 48.6 57.6s-21 53-48.6 57.6c3.2 0.6 6.4 0.8 9.8 0.8 32.2 0 58.4-26.2 58.4-58.4S700 512 667.6 512z" fill="#BCBEC0" /><path d="M667.6 633.6c-34.8 0-63.2-28.4-63.2-63.2 0-34.8 28.4-63.2 63.2-63.2 34.8 0 63.2 28.4 63.2 63.2 0.2 34.8-28.2 63.2-63.2 63.2z m0-116.8c-29.6 0-53.6 24-53.6 53.6s24 53.6 53.6 53.6 53.6-24 53.6-53.6-24-53.6-53.6-53.6z" fill="#402943" /><path d="M667.6 541.2m-9.8 0a9.8 9.8 0 1 0 19.6 0 9.8 9.8 0 1 0-19.6 0Z" fill="#59C3F0" /><path d="M667.6 555.8c-8 0-14.6-6.6-14.6-14.6s6.6-14.6 14.6-14.6 14.6 6.6 14.6 14.6-6.4 14.6-14.6 14.6z m0-19.4c-2.6 0-4.8 2.2-4.8 4.8 0 2.6 2.2 4.8 4.8 4.8 2.6 0 4.8-2.2 4.8-4.8 0.2-2.6-2-4.8-4.8-4.8z" fill="#402943" /><path d="M667.6 599.6m-9.8 0a9.8 9.8 0 1 0 19.6 0 9.8 9.8 0 1 0-19.6 0Z" fill="#4AB5AC" /><path d="M667.6 614.2c-8 0-14.6-6.6-14.6-14.6s6.6-14.6 14.6-14.6 14.6 6.6 14.6 14.6-6.4 14.6-14.6 14.6z m0-19.6c-2.6 0-4.8 2.2-4.8 4.8 0 2.6 2.2 4.8 4.8 4.8 2.6 0 4.8-2.2 4.8-4.8 0.2-2.6-2-4.8-4.8-4.8z" fill="#402943" /><path d="M696.8 570.4m-9.8 0a9.8 9.8 0 1 0 19.6 0 9.8 9.8 0 1 0-19.6 0Z" fill="#F05458" /><path d="M696.8 585c-8 0-14.6-6.6-14.6-14.6s6.6-14.6 14.6-14.6 14.6 6.6 14.6 14.6-6.4 14.6-14.6 14.6z m0-19.4c-2.6 0-4.8 2.2-4.8 4.8 0 2.6 2.2 4.8 4.8 4.8 2.6 0 4.8-2.2 4.8-4.8 0.2-2.8-2-4.8-4.8-4.8z" fill="#402943" /><path d="M638.4 570.4m-9.8 0a9.8 9.8 0 1 0 19.6 0 9.8 9.8 0 1 0-19.6 0Z" fill="#FCD64B" /><path d="M638.4 585c-8 0-14.6-6.6-14.6-14.6s6.6-14.6 14.6-14.6 14.6 6.6 14.6 14.6-6.4 14.6-14.6 14.6z m0-19.4c-2.6 0-4.8 2.2-4.8 4.8 0 2.6 2.2 4.8 4.8 4.8 2.6 0 4.8-2.2 4.8-4.8 0.2-2.8-2-4.8-4.8-4.8z" fill="#402943" /><path d="M434.2 570.4m-58.4 0a58.4 58.4 0 1 0 116.8 0 58.4 58.4 0 1 0-116.8 0Z" fill="#E6E7E8" /><path d="M434.2 512c-3.4 0-6.6 0.2-9.8 0.8 27.6 4.6 48.6 28.6 48.6 57.6S452 623.4 424.4 628c3.2 0.6 6.4 0.8 9.8 0.8 32.2 0 58.4-26.2 58.4-58.4S466.4 512 434.2 512z" fill="#BCBEC0" /><path d="M434.2 633.6c-34.8 0-63.2-28.4-63.2-63.2 0-34.8 28.4-63.2 63.2-63.2 34.8 0 63.2 28.4 63.2 63.2 0 34.8-28.4 63.2-63.2 63.2z m0-116.8c-29.6 0-53.6 24-53.6 53.6s24 53.6 53.6 53.6 53.6-24 53.6-53.6c-0.2-29.6-24.2-53.6-53.6-53.6z" fill="#402943" /><path d="M424.4 531.4h19.4v77.8h-19.4z" fill="#402943" /><path d="M395.2 560.6h77.8v19.4h-77.8z" fill="#402943" /><path d="M560.6 560.6h-19.4c-5.4 0-9.8-4.4-9.8-9.8s4.4-9.8 9.8-9.8h19.4c5.4 0 9.8 4.4 9.8 9.8s-4.4 9.8-9.8 9.8z" fill="#402943" /><path d="M551 439c-5.4 0-9.8-4.4-9.8-9.8V200.6c0-5.4 4.4-9.8 9.8-9.8s9.8 4.4 9.8 9.8v228.6c-0.2 5.4-4.6 9.8-9.8 9.8z" fill="#402943" /><path d="M453.6 385.6c-5.4 0-9.8-4.4-9.8-9.8v-39c0-5.4 4.4-9.8 9.8-9.8s9.8 4.4 9.8 9.8v39c0 5.4-4.4 9.8-9.8 9.8z" fill="#FFFFFF" /><path d="M473 366H434c-5.4 0-9.8-4.4-9.8-9.8s4.4-9.8 9.8-9.8h39c5.4 0 9.8 4.4 9.8 9.8 0 5.6-4.4 9.8-9.8 9.8zM375.8 327.2c-5.4 0-9.8-4.4-9.8-9.8v-39c0-5.4 4.4-9.8 9.8-9.8s9.8 4.4 9.8 9.8v39c0 5.4-4.4 9.8-9.8 9.8z" fill="#FFFFFF" /><path d="M395.2 307.6h-39c-5.4 0-9.8-4.4-9.8-9.8s4.4-9.8 9.8-9.8h39c5.4 0 9.8 4.4 9.8 9.8 0 5.6-4.4 9.8-9.8 9.8z" fill="#FFFFFF" /><path d="M395.2 443.8c-5.4 0-9.8-4.4-9.8-9.8v-39c0-5.4 4.4-9.8 9.8-9.8s9.8 4.4 9.8 9.8V434c0 5.6-4.4 9.8-9.8 9.8z" fill="#FFFFFF" /><path d="M414.8 424.4h-39c-5.4 0-9.8-4.4-9.8-9.8s4.4-9.8 9.8-9.8h39c5.4 0 9.8 4.4 9.8 9.8-0.2 5.4-4.6 9.8-9.8 9.8z" fill="#FFFFFF" /></svg>