<svg class="svg-icon" style="width: 1em;height: 1em;vertical-align: middle;fill: currentColor;overflow: hidden;" viewBox="0 0 1024 1024" version="1.1" xmlns="http://www.w3.org/2000/svg"><path d="M745.6 337V181.4L590 142.4v194.6c0 43-34.8 77.8-77.8 77.8s-77.8-34.8-77.8-77.8V142.4l-155.6 39v155.6c0 43-34.8 77.8-77.8 77.8v428.2c0 21.4 17.2 38.6 38.6 38.6h234c21.4 0 38.6-17.2 38.6-38.6h0.4c0 21.4 17.2 38.6 38.6 38.6h233.8c21.4 0 38.6-17.2 38.6-38.6h0.2V414.8c-43.4 0-78.2-34.8-78.2-77.8z" fill="#FFFFFF" /><path d="M745.6 337V181.4l-39-9.8v165.4c0 43 34.8 77.8 77.8 77.8v428.2h-0.2c0 21.4-17.2 38.6-38.6 38.6h39c21.4 0 38.6-17.2 38.6-38.6h0.2V414.8c-43 0-77.8-34.8-77.8-77.8zM278.4 337V181.4l39-9.8v165.4c0 43-34.8 77.8-77.8 77.8v428.2h0.2c0 21.4 17.2 38.6 38.6 38.6h-39c-21.4 0-38.6-17.2-38.6-38.6h-0.2V414.8c43 0 77.8-34.8 77.8-77.8z" fill="#E6E7E8" /><path d="M784.6 891.4H550.8c-15.8 0-30-7.6-38.8-19.4-8.8 11.8-23 19.4-38.8 19.4h-234c-26.6 0-48.4-21.6-48.4-48.4V414.6c0-5.4 4.4-9.8 9.8-9.8 37.6 0 68.2-30.6 68.2-68.2V181c0-4.4 3-8.4 7.4-9.4l155.6-39c3-0.8 6 0 8.4 1.8 2.4 1.8 3.8 4.6 3.8 7.6v194.6c0 37.6 30.6 68.2 68.2 68.2s68.2-30.6 68.2-68.2V142.4c0-3 1.4-5.8 3.8-7.6 2.4-1.8 5.4-2.4 8.4-1.8L748.2 172c4.4 1 7.4 5 7.4 9.4v155.6c0 37.6 30.6 68.2 68.2 68.2 5.4 0 9.8 4.4 9.8 9.8v428.2c0 0.6 0 1.4-0.2 2-1.6 25.6-22.8 46.2-48.8 46.2z m-272.8-58h0.4c5.4 0 9.8 4.4 9.8 9.8 0 16 13 28.8 28.8 28.8h233.8c16 0 28.8-13 28.8-28.8 0-0.6 0-1.2 0.2-1.8V424c-43.8-4.8-77.8-42-77.8-87v-148l-136.2-34v182.2c0 48.2-39.2 87.6-87.6 87.6s-87.6-39.2-87.6-87.6V154.8l-136.2 34v148c0 45-34.2 82.2-77.8 87v419.2c0.2 15.8 13 28.6 28.8 28.6h234c16 0 28.8-13 28.8-28.8 0-5.2 4.4-9.4 9.8-9.4z" fill="#402943" /><path d="M512 414.8v434.8" fill="#FFFFFF" /><path d="M512 859.2c-5.4 0-9.8-4.4-9.8-9.8V414.8c0-5.4 4.4-9.8 9.8-9.8s9.8 4.4 9.8 9.8v434.8c0 5.2-4.4 9.6-9.8 9.6z" fill="#402943" /><path d="M161.8 492.6h155.6v77.8H161.8z" fill="#59C3F0" /><path d="M161.8 492.6h155.6v19.4H161.8z" fill="#96DCFA" /><path d="M161.8 550.8h155.6v19.4H161.8z" fill="#21A0D6" /><path d="M317.4 580.2H161.8c-5.4 0-9.8-4.4-9.8-9.8v-77.8c0-5.4 4.4-9.8 9.8-9.8h155.6c5.4 0 9.8 4.4 9.8 9.8v77.8c0 5.4-4.4 9.8-9.8 9.8z m-146-19.4h136.2v-58.4H171.4v58.4z" fill="#402943" /><path d="M161.8 687.2h155.6v77.8H161.8z" fill="#FCD64B" /><path d="M161.8 687.2h155.6v19.4H161.8z" fill="#FFECA6" /><path d="M161.8 745.4h155.6v19.4H161.8z" fill="#F5AB33" /><path d="M317.4 774.8H161.8c-5.4 0-9.8-4.4-9.8-9.8v-77.8c0-5.4 4.4-9.8 9.8-9.8h155.6c5.4 0 9.8 4.4 9.8 9.8v77.8c0 5.4-4.4 9.8-9.8 9.8z m-146-19.4h136.2v-58.4H171.4v58.4z" fill="#402943" /><path d="M706.6 492.6h155.6v77.8h-155.6z" fill="#59C3F0" /><path d="M706.6 492.6h155.6v19.4h-155.6z" fill="#96DCFA" /><path d="M706.6 550.8h155.6v19.4h-155.6z" fill="#21A0D6" /><path d="M862.2 580.2h-155.6c-5.4 0-9.8-4.4-9.8-9.8v-77.8c0-5.4 4.4-9.8 9.8-9.8h155.6c5.4 0 9.8 4.4 9.8 9.8v77.8c0 5.4-4.4 9.8-9.8 9.8z m-145.8-19.4h136.2v-58.4h-136.2v58.4z" fill="#402943" /><path d="M706.6 687.2h155.6v77.8h-155.6z" fill="#FCD64B" /><path d="M706.6 687.4h155.6v19.4h-155.6z" fill="#FFECA6" /><path d="M706.6 745.6h155.6v19.4h-155.6z" fill="#F5AB33" /><path d="M862.2 774.8h-155.6c-5.4 0-9.8-4.4-9.8-9.8v-77.8c0-5.4 4.4-9.8 9.8-9.8h155.6c5.4 0 9.8 4.4 9.8 9.8v77.8c0 5.4-4.4 9.8-9.8 9.8z m-145.8-19.4h136.2v-58.4h-136.2v58.4z" fill="#402943" /><path d="M434.2 181.2l-155.6 39" fill="#FCD64B" /><path d="M278.4 230c-4.4 0-8.4-3-9.4-7.4-1.4-5.2 1.8-10.4 7-11.8l155.6-39c5.2-1.2 10.4 1.8 11.8 7 1.4 5.2-1.8 10.4-7 11.8l-155.6 39c-0.8 0.2-1.6 0.4-2.4 0.4z" fill="#402943" /><path d="M589.8 181.2l155.6 39" fill="#FCD64B" /><path d="M745.6 230c-0.8 0-1.6 0-2.4-0.2l-155.6-39c-5.2-1.4-8.4-6.6-7-11.8 1.4-5.2 6.6-8.4 11.8-7l155.6 39c5.2 1.4 8.4 6.6 7 11.8-1.2 4.2-5.2 7.2-9.4 7.2z" fill="#402943" /><path d="M473 492.6h78" fill="#FCD64B" /><path d="M551 502.4h-77.8c-5.4 0-9.8-4.4-9.8-9.8s4.4-9.8 9.8-9.8h77.8c5.4 0 9.8 4.4 9.8 9.8-0.2 5.4-4.6 9.8-9.8 9.8z" fill="#402943" /><path d="M570.4 492.6m-19.4 0a19.4 19.4 0 1 0 38.8 0 19.4 19.4 0 1 0-38.8 0Z" fill="#FCD64B" /><path d="M570.4 492.4c-7.2 0-13.4-3.8-16.8-9.6-1.6 2.8-2.6 6.2-2.6 9.8 0 10.8 8.8 19.4 19.4 19.4s19.4-8.8 19.4-19.4c0-3.6-1-7-2.6-9.8-3.4 5.8-9.6 9.6-16.8 9.6z" fill="#F5AB33" /><path d="M570.4 521.8c-16 0-29.2-13-29.2-29.2 0-16 13-29.2 29.2-29.2 16 0 29.2 13 29.2 29.2s-13.2 29.2-29.2 29.2z m0-39c-5.4 0-9.8 4.4-9.8 9.8s4.4 9.8 9.8 9.8 9.8-4.4 9.8-9.8-4.4-9.8-9.8-9.8z" fill="#402943" /><path d="M453.6 492.6m-19.4 0a19.4 19.4 0 1 0 38.8 0 19.4 19.4 0 1 0-38.8 0Z" fill="#FCD64B" /><path d="M453.6 492.4c-7.2 0-13.4-3.8-16.8-9.6-1.6 2.8-2.6 6.2-2.6 9.8 0 10.8 8.8 19.4 19.4 19.4 10.8 0 19.4-8.8 19.4-19.4 0-3.6-1-7-2.6-9.8-3.4 5.8-9.6 9.6-16.8 9.6z" fill="#F5AB33" /><path d="M453.6 521.8c-16 0-29.2-13-29.2-29.2 0-16 13-29.2 29.2-29.2 16 0 29.2 13 29.2 29.2s-13 29.2-29.2 29.2z m0-39c-5.4 0-9.8 4.4-9.8 9.8s4.4 9.8 9.8 9.8 9.8-4.4 9.8-9.8-4.4-9.8-9.8-9.8z" fill="#402943" /><path d="M473 628.8h78" fill="#FCD64B" /><path d="M551 638.6h-77.8c-5.4 0-9.8-4.4-9.8-9.8s4.4-9.8 9.8-9.8h77.8c5.4 0 9.8 4.4 9.8 9.8-0.2 5.4-4.6 9.8-9.8 9.8z" fill="#402943" /><path d="M570.4 628.8m-19.4 0a19.4 19.4 0 1 0 38.8 0 19.4 19.4 0 1 0-38.8 0Z" fill="#FCD64B" /><path d="M570.4 628.8c-7.2 0-13.4-3.8-16.8-9.6-1.6 2.8-2.6 6.2-2.6 9.8 0 10.8 8.8 19.4 19.4 19.4s19.4-8.8 19.4-19.4c0-3.6-1-7-2.6-9.8-3.4 5.6-9.6 9.6-16.8 9.6z" fill="#F5AB33" /><path d="M570.4 658c-16 0-29.2-13-29.2-29.2 0-16 13-29.2 29.2-29.2 16 0 29.2 13 29.2 29.2s-13.2 29.2-29.2 29.2z m0-38.8c-5.4 0-9.8 4.4-9.8 9.8s4.4 9.8 9.8 9.8 9.8-4.4 9.8-9.8-4.4-9.8-9.8-9.8z" fill="#402943" /><path d="M453.6 628.8m-19.4 0a19.4 19.4 0 1 0 38.8 0 19.4 19.4 0 1 0-38.8 0Z" fill="#FCD64B" /><path d="M453.6 628.8c-7.2 0-13.4-3.8-16.8-9.6-1.6 2.8-2.6 6.2-2.6 9.8 0 10.8 8.8 19.4 19.4 19.4 10.8 0 19.4-8.8 19.4-19.4 0-3.6-1-7-2.6-9.8-3.4 5.6-9.6 9.6-16.8 9.6z" fill="#F5AB33" /><path d="M453.6 658c-16 0-29.2-13-29.2-29.2 0-16 13-29.2 29.2-29.2 16 0 29.2 13 29.2 29.2s-13 29.2-29.2 29.2z m0-38.8c-5.4 0-9.8 4.4-9.8 9.8s4.4 9.8 9.8 9.8 9.8-4.4 9.8-9.8-4.4-9.8-9.8-9.8z" fill="#402943" /><path d="M473 765h78" fill="#FCD64B" /><path d="M551 774.8h-77.8c-5.4 0-9.8-4.4-9.8-9.8s4.4-9.8 9.8-9.8h77.8c5.4 0 9.8 4.4 9.8 9.8s-4.6 9.8-9.8 9.8z" fill="#402943" /><path d="M570.4 765m-19.4 0a19.4 19.4 0 1 0 38.8 0 19.4 19.4 0 1 0-38.8 0Z" fill="#FCD64B" /><path d="M570.4 765c-7.2 0-13.4-3.8-16.8-9.6-1.6 2.8-2.6 6.2-2.6 9.8 0 10.8 8.8 19.4 19.4 19.4 10.8 0 19.4-8.8 19.4-19.4 0-3.6-1-7-2.6-9.8-3.4 5.6-9.6 9.6-16.8 9.6z" fill="#F5AB33" /><path d="M570.4 794.2c-16 0-29.2-13-29.2-29.2 0-16 13-29.2 29.2-29.2 16 0 29.2 13 29.2 29.2s-13.2 29.2-29.2 29.2z m0-38.8c-5.4 0-9.8 4.4-9.8 9.8s4.4 9.8 9.8 9.8 9.8-4.4 9.8-9.8c0-5.6-4.4-9.8-9.8-9.8z" fill="#402943" /><path d="M453.6 765m-19.4 0a19.4 19.4 0 1 0 38.8 0 19.4 19.4 0 1 0-38.8 0Z" fill="#FCD64B" /><path d="M453.6 765c-7.2 0-13.4-3.8-16.8-9.6-1.6 2.8-2.6 6.2-2.6 9.8 0 10.8 8.8 19.4 19.4 19.4 10.8 0 19.4-8.8 19.4-19.4 0-3.6-1-7-2.6-9.8-3.4 5.6-9.6 9.6-16.8 9.6z" fill="#F5AB33" /><path d="M453.6 794.2c-16 0-29.2-13-29.2-29.2 0-16 13-29.2 29.2-29.2 16 0 29.2 13 29.2 29.2s-13 29.2-29.2 29.2z m0-38.8c-5.4 0-9.8 4.4-9.8 9.8s4.4 9.8 9.8 9.8 9.8-4.4 9.8-9.8c0-5.6-4.4-9.8-9.8-9.8z" fill="#402943" /><path d="M200.6 536.4H161.8c-2.6 0-4.8-2.2-4.8-4.8 0-2.6 2.2-4.8 4.8-4.8h39c2.6 0 4.8 2.2 4.8 4.8 0 2.6-2.2 4.8-5 4.8zM200.6 731H161.8c-2.6 0-4.8-2.2-4.8-4.8s2.2-4.8 4.8-4.8h39c2.6 0 4.8 2.2 4.8 4.8s-2.2 4.8-5 4.8z" fill="#402943" /><path d="M862.2 536.4h-39c-2.6 0-4.8-2.2-4.8-4.8 0-2.6 2.2-4.8 4.8-4.8h39c2.6 0 4.8 2.2 4.8 4.8 0.2 2.6-2 4.8-4.8 4.8zM862.2 731h-39c-2.6 0-4.8-2.2-4.8-4.8s2.2-4.8 4.8-4.8h39c2.6 0 4.8 2.2 4.8 4.8s-2 4.8-4.8 4.8z" fill="#402943" /></svg>