<svg class="svg-icon" style="width: 1em;height: 1em;vertical-align: middle;fill: currentColor;overflow: hidden;" viewBox="0 0 1024 1024" version="1.1" xmlns="http://www.w3.org/2000/svg"><path d="M291.872432 634.969705a311.4 311.4 0 1 0 440.378417-440.39379 311.4 311.4 0 1 0-440.378417 440.39379Z" fill="#59C3F0" /><path d="M512 735.6c-82.2 0-164.4-31.2-227-93.8-60.6-60.6-94-141.2-94-227 0-85.8 33.4-166.4 94-227 60.6-60.6 141.2-94 227-94s166.4 33.4 227 94c60.6 60.6 94 141.2 94 227 0 85.8-33.4 166.4-94 227-62.6 62.6-144.8 93.8-227 93.8z m0-622.4c-80.6 0-156.4 31.4-213.2 88.4-57 57-88.4 132.8-88.4 213.2 0 80.6 31.4 156.4 88.4 213.2 58.8 58.8 136 88.2 213.2 88.2 77.2 0 154.4-29.4 213.2-88.2 57-57 88.4-132.8 88.4-213.2 0-80.6-31.4-156.2-88.4-213.2-56.8-57.2-132.6-88.4-213.2-88.4z" fill="#402943" /><path d="M291.872432 634.969705a311.4 311.4 0 1 0 440.378417-440.39379 311.4 311.4 0 1 0-440.378417 440.39379Z" fill="#FCD64B" /><path d="M732.2 194.6c-70.8-70.8-167-100.2-259-88.8 66.2 8.4 130.4 37.8 181.2 88.8 121.6 121.6 121.6 318.8 0 440.2-50.8 50.8-115 80.4-181.2 88.8 92 11.6 188.4-18 259-88.8 121.6-121.6 121.6-318.6 0-440.2z" fill="#F5AB33" /><path d="M291.8 634.8c70.8 70.8 167 100.2 259 88.8-66.2-8.4-130.4-37.8-181.2-88.8-121.6-121.6-121.6-318.8 0-440.2 50.8-50.8 115-80.4 181.2-88.8-92-11.6-188.4 18-259 88.8-121.6 121.6-121.6 318.6 0 440.2z" fill="#FFECA6" /><path d="M512 735.6c-82.2 0-164.4-31.2-227-93.8-60.6-60.6-94-141.2-94-227 0-85.8 33.4-166.4 94-227 60.6-60.6 141.2-94 227-94s166.4 33.4 227 94c60.6 60.6 94 141.2 94 227 0 85.8-33.4 166.4-94 227-62.6 62.6-144.8 93.8-227 93.8z m0-622.4c-80.6 0-156.4 31.4-213.2 88.4-57 57-88.4 132.8-88.4 213.2 0 80.6 31.4 156.4 88.4 213.2 58.8 58.8 136 88.2 213.2 88.2 77.2 0 154.4-29.4 213.2-88.2 57-57 88.4-132.8 88.4-213.2 0-80.6-31.4-156.2-88.4-213.2-56.8-57.2-132.6-88.4-213.2-88.4z" fill="#402943" /><path d="M814.4 433c-85.6 0-166-33.2-226.8-94-63-63-96.4-146.8-94-235.8 0.2-5.2 4.2-9.4 9.4-9.4 89-2.4 172.8 31 235.8 94s96.4 146.8 94 235.8c-0.2 5.2-4.2 9.4-9.4 9.4h-9zM513.2 113.2c0.2 80.2 31.4 155.2 88.4 212.2 57 57 132 88.2 212.2 88.4-0.2-80.2-31.4-155.2-88.4-212.2-57-57.2-132.2-88.2-212.2-88.4zM511.8 735.8c-85.6 0-166-33.2-226.8-94-63-63-96.4-146.8-94-235.8 0.2-5.2 4.2-9.4 9.4-9.4 89-2.4 172.8 31 235.8 94s96.4 146.8 94 235.8c-0.2 5.2-4.2 9.4-9.4 9.4h-9z m-301.4-320c0.2 80.2 31.4 155.2 88.4 212.2 57 57 132 88.2 212.2 88.4-0.2-80.2-31.4-155.2-88.4-212.2-57-57-132-88.2-212.2-88.4z" fill="#402943" /><path d="M291.8 644.6c-2.4 0-5-1-6.8-2.8-3.8-3.8-3.8-10 0-13.8L725.2 187.6c3.8-3.8 10-3.8 13.8 0 3.8 3.8 3.8 10 0 13.8L298.8 641.8c-2 1.8-4.4 2.8-7 2.8z" fill="#402943" /><path d="M732.2 644.6c-2.4 0-5-1-6.8-2.8L285 201.4c-3.8-3.8-3.8-10 0-13.8 3.8-3.8 10-3.8 13.8 0L739 628c3.8 3.8 3.8 10 0 13.8-1.8 1.8-4.4 2.8-6.8 2.8z" fill="#402943" /><path d="M589.8 920.6V726c21.4 0 39-17.4 39-39V482.6c0-16.2-13-29.2-29.2-29.2s-29.2 13-29.2 29.2c0-16.2-13-29.2-29.2-29.2s-29.2 13-29.2 29.2c0-16.2-13-29.2-29.2-29.2s-29.2 13-29.2 29.2c0-16.2-13-29.2-29.2-29.2s-29.2 13-29.2 29.2v29.2c-21.4 0-39 17.4-39 39V648c0 43 34.8 77.8 77.8 77.8v194.6h155.8z" fill="#FFFFFF" /><path d="M628.8 648.2c0 21.4-17.4 39-39 39V726h-155.6v-39c-43 0-77.8-34.8-77.8-77.8v-58.4V648c0 43 34.8 77.8 77.8 77.8v39h155.6V726c21.4 0 39-17.4 39-39V482.6v165.6zM434.2 833h155.6V872h-155.6z" fill="#E6E7E8" /><path d="M589.8 930.4h-155.6c-5.4 0-9.8-4.4-9.8-9.8v-185.4c-43.8-4.8-77.8-42-77.8-87v-97.2c0-23.4 16.8-43.2 39-47.6v-20.4c0-21.4 17.4-39 39-39 11.6 0 22 5.2 29.2 13.2 0.6-0.6 1-1.2 1.6-1.8 7.4-7.4 17.2-11.4 27.6-11.4 11.6 0 22 5.2 29.2 13.2 0.6-0.6 1-1.2 1.6-1.8 7.4-7.4 17.2-11.4 27.6-11.4 11.6 0 22 5.2 29.2 13.2 7.2-8 17.6-13.2 29.2-13.2 21.4 0 39 17.4 39 39v204.4c0 23.4-16.8 43.2-39 47.6v185.8c-0.2 5.2-4.6 9.6-10 9.6z m-146-19.6H580V726c0-5.4 4.4-9.8 9.8-9.8 16 0 29.2-13 29.2-29.2V482.6c0-10.8-8.8-19.4-19.4-19.4-10.8 0-19.4 8.8-19.4 19.4 0 5.4-4.4 9.8-9.8 9.8s-9.8-4.4-9.8-9.8c0-10.8-8.8-19.4-19.4-19.4-5.2 0-10 2-13.8 5.8-3.6 3.6-5.6 8.6-5.6 13.8 0 5.4-4.4 9.8-9.8 9.8s-9.8-4.4-9.8-9.8c0-10.8-8.8-19.4-19.4-19.4-5.2 0-10 2-13.8 5.8-3.6 3.6-5.6 8.6-5.6 13.8 0 5.4-4.4 9.8-9.8 9.8s-9.8-4.4-9.8-9.8c0-10.8-8.8-19.4-19.4-19.4-10.8 0-19.4 8.8-19.4 19.4v29.2c0 5.4-4.4 9.8-9.8 9.8-16 0-29.2 13-29.2 29.2v97.2c0 37.6 30.6 68.2 68.2 68.2 5.4 0 9.8 4.4 9.8 9.8v184.4z" fill="#402943" /><path d="M395.2 638.4c-5.4 0-9.8-4.4-9.8-9.8V512c0-5.4 4.4-9.8 9.8-9.8s9.8 4.4 9.8 9.8v116.8c0 5.4-4.4 9.6-9.8 9.6z" fill="#402943" /><path d="M453.6 521.8c-5.4 0-9.8-4.4-9.8-9.8v-29.2c0-5.4 4.4-9.8 9.8-9.8s9.8 4.4 9.8 9.8V512c0 5.4-4.4 9.8-9.8 9.8z" fill="#402943" /><path d="M512 521.8c-5.4 0-9.8-4.4-9.8-9.8v-29.2c0-5.4 4.4-9.8 9.8-9.8s9.8 4.4 9.8 9.8V512c0 5.4-4.4 9.8-9.8 9.8z" fill="#402943" /><path d="M570.4 521.8c-5.4 0-9.8-4.4-9.8-9.8v-29.2c0-5.4 4.4-9.8 9.8-9.8s9.8 4.4 9.8 9.8V512c-0.2 5.4-4.4 9.8-9.8 9.8z" fill="#402943" /><path d="M414.8 765h194.6v77.8h-194.6z" fill="#59C3F0" /><path d="M570.4 765h39v77.8h-39z" fill="#21A0D6" /><path d="M414.688 842.836v-77.8h39v77.8z" fill="#96DCFA" /><path d="M609.2 852.6h-194.6c-5.4 0-9.8-4.4-9.8-9.8v-77.8c0-5.4 4.4-9.8 9.8-9.8h194.6c5.4 0 9.8 4.4 9.8 9.8v77.8c0 5.4-4.4 9.8-9.8 9.8z m-184.8-19.6h175.2v-58.4h-175.2v58.4z" fill="#402943" /><path d="M757.6 914.2c-1.2 0-2.6-0.2-3.8-0.8-5-2-7.4-7.8-5.2-12.8 25.8-62.4 25.8-131.2 0-193.6-2-5 0.4-10.6 5.2-12.8 5-2 10.6 0.4 12.8 5.2 27.8 67.2 27.8 141.2 0 208.4-1.6 4-5.2 6.4-9 6.4zM712.6 895.6c-1.2 0-2.6-0.2-3.8-0.8-5-2-7.4-7.8-5.2-12.8 20.8-50.4 20.8-106 0-156.4-2-5 0.4-10.6 5.2-12.8 5-2 10.6 0.2 12.8 5.2 22.8 55.2 22.8 116 0 171.2-1.6 4-5.2 6.4-9 6.4zM667.6 876.8c-1.2 0-2.6-0.2-3.8-0.8-5-2-7.4-7.8-5.2-12.8 16-38.4 16-80.8 0-119.2-2-5 0.4-10.6 5.2-12.8 5-2 10.6 0.4 12.8 5.2 17.8 43.2 17.8 90.8 0 134-1.4 4.2-5.2 6.4-9 6.4z" fill="#402943" /><path d="M266.4 914.2c-3.8 0-7.4-2.2-9-6-27.8-67.2-27.8-141.2 0-208.4 2-5 7.8-7.4 12.8-5.2 5 2 7.4 7.8 5.2 12.8-25.8 62.4-25.8 131.2 0 193.6 2 5-0.4 10.6-5.2 12.8-1.2 0-2.6 0.4-3.8 0.4zM311.4 895.6c-3.8 0-7.4-2.2-9-6-22.8-55.2-22.8-116 0-171.2 2-5 7.8-7.4 12.8-5.2 5 2 7.4 7.8 5.2 12.8-20.8 50.4-20.8 106 0 156.4 2 5-0.4 10.6-5.2 12.8-1.4 0-2.6 0.4-3.8 0.4zM356.4 876.8c-3.8 0-7.4-2.2-9-6-17.8-43.2-17.8-90.8 0-134 2-5 7.8-7.4 12.8-5.2 5 2 7.4 7.8 5.2 12.8-16 38.4-16 80.8 0 119.2 2 5-0.4 10.6-5.2 12.8-1.4 0.2-2.6 0.4-3.8 0.4z" fill="#402943" /></svg>