<svg class="svg-icon" style="width: 1em;height: 1em;vertical-align: middle;fill: currentColor;overflow: hidden;" viewBox="0 0 1024 1024" version="1.1" xmlns="http://www.w3.org/2000/svg"><path d="M103.4 687.2c0 32.2 26.2 58.4 58.4 58.4h700.6c32.2 0 58.4-26.2 58.4-58.4V298c0-32.2-26.2-58.4-58.4-58.4H161.8c-32.2 0-58.4 26.2-58.4 58.4v389.2z" fill="#FFFFFF" /><path d="M862.2 239.6h-58.4c32.2 0 58.4 26.2 58.4 58.4v389.2c0 32.2-26.2 58.4-58.4 58.4h58.4c32.2 0 58.4-26.2 58.4-58.4V298c0-32.2-26.2-58.4-58.4-58.4zM161.8 745.4h58.4c-32.2 0-58.4-26.2-58.4-58.4V298c0-32.2 26.2-58.4 58.4-58.4H161.8c-32.2 0-58.4 26.2-58.4 58.4v389.2c0 32.2 26.2 58.2 58.4 58.2z" fill="#E6E7E8" /><path d="M862.2 755.2H161.8c-37.6 0-68.2-30.6-68.2-68.2V298c0-37.6 30.6-68.2 68.2-68.2h700.6c37.6 0 68.2 30.6 68.2 68.2v389.2c-0.2 37.4-30.8 68-68.4 68zM161.8 249.4c-26.8 0-48.6 21.8-48.6 48.6v389.2c0 26.8 21.8 48.6 48.6 48.6h700.6c26.8 0 48.6-21.8 48.6-48.6V298c0-26.8-21.8-48.6-48.6-48.6H161.8z" fill="#402943" /><path d="M103.4 317.4h817.2v350.2H103.4z" fill="#59C3F0" /><path d="M862.2 317.4h58.4v350.2h-58.4z" fill="#21A0D6" /><path d="M103.4 317.4h58.4v350.2H103.4z" fill="#96DCFA" /><path d="M920.6 677.4H103.4c-5.4 0-9.8-4.4-9.8-9.8V317.4c0-5.4 4.4-9.8 9.8-9.8h817.2c5.4 0 9.8 4.4 9.8 9.8v350.2c0 5.4-4.4 9.8-9.8 9.8zM113.2 658h797.8V327.2H113.2V658z" fill="#402943" /><path d="M453.6 745.6h116.8v77.8h-116.8z" fill="#FFFFFF" /><path d="M453.6 745.6h116.8v39h-116.8z" fill="#E6E7E8" /><path d="M570.4 833h-116.8c-5.4 0-9.8-4.4-9.8-9.8v-77.8c0-5.4 4.4-9.8 9.8-9.8h116.8c5.4 0 9.8 4.4 9.8 9.8v77.8c0 5.6-4.4 9.8-9.8 9.8z m-107-19.4h97.2v-58.4h-97.2v58.4z" fill="#402943" /><path d="M317.4 823.4h389.2v39H317.4z" fill="#FFFFFF" /><path d="M667.6 823.4h39v39h-39zM317.4 823.4h39v39h-39z" fill="#E6E7E8" /><path d="M706.6 872H317.4c-5.4 0-9.8-4.4-9.8-9.8v-39c0-5.4 4.4-9.8 9.8-9.8h389.2c5.4 0 9.8 4.4 9.8 9.8v39c0 5.4-4.4 9.8-9.8 9.8z m-379.4-19.4h369.8v-19.4H327.2v19.4z" fill="#402943" /><path d="M512 361.8l42.4 86 95 13.8-68.6 67 16.2 94.8-85-44.8-85 44.8 16.2-94.8-68.6-67 95-13.8z" fill="#FCD64B" /><path d="M649.4 461.6l-95-13.8-42.4-86v216.8l85 44.8-16.2-94.8z" fill="#F5AB33" /><path d="M597 633c-1.6 0-3.2-0.4-4.6-1.2L512 589.6 431.6 632c-3.2 1.8-7.2 1.4-10.2-0.8-3-2.2-4.4-5.8-3.8-9.6l15.4-89.6-65-63.4c-2.6-2.6-3.6-6.4-2.4-10 1.2-3.6 4.2-6 7.8-6.6l90-13 40.2-81.4c1.6-3.4 5-5.4 8.8-5.4s7 2.2 8.8 5.4l40.2 81.4 90 13c3.6 0.6 6.8 3 7.8 6.6 1.2 3.6 0.2 7.4-2.4 10L591.2 532l15.4 89.6c0.6 3.6-0.8 7.4-3.8 9.6-1.8 1.2-3.8 1.8-5.8 1.8z m-85-64c1.6 0 3.2 0.4 4.6 1.2l67.6 35.4-12.8-75.2c-0.6-3.2 0.6-6.4 2.8-8.6l54.6-53.2-75.4-11c-3.2-0.4-6-2.4-7.4-5.4l-34-68.4-33.8 68.4c-1.4 2.8-4.2 4.8-7.4 5.4l-75.4 11 54.6 53.2c2.2 2.2 3.4 5.4 2.8 8.6l-12.8 75.2 67.6-35.4c1.2-1 2.8-1.2 4.4-1.2z" fill="#402943" /><path d="M375.8 317.4c-7.8 0-15.2 2.4-21.2 6.4 0.4-2 0.6-4.2 0.6-6.4 0-21.4-17.4-39-39-39s-39 17.4-39 39c0 1.6 0.2 3.2 0.4 4.6-5.4-3-11.8-4.6-18.4-4.6-21.4 0-39 17.4-39 39 0 21.4 17.4 39 39 39H376c21.4 0 39-17.4 39-39-0.2-21.6-17.8-39-39.2-39z" fill="#E6E7E8" /><path d="M336.8 317.4c0 2.2-0.2 4.2-0.6 6.4 5.8-3.8 12.6-6 20-6.4 0-21.4-17.4-39-39-39-3.4 0-6.6 0.4-9.8 1.2 17 4.4 29.4 19.6 29.4 37.8zM377 317.4c-3.4 0-6.6 0.4-9.8 1.2 16.8 4.4 29.2 19.6 29.2 37.6 0 21.4-17.4 39-39 39h19.4c21.4 0 39-17.4 39-39 0.2-21.4-17.2-38.8-38.8-38.8z" fill="#BCBEC0" /><path d="M375.8 405h-116.8c-26.8 0-48.6-21.8-48.6-48.6s21.8-48.6 48.6-48.6c3.2 0 6.2 0.4 9.2 0.8 4.2-22.6 24-39.8 47.8-39.8 24 0 44 17.4 48 40.4 3.8-1 7.8-1.4 11.8-1.4 26.8 0 48.6 21.8 48.6 48.6s-21.8 48.6-48.6 48.6z m-116.8-77.8c-16 0-29.2 13-29.2 29.2s13 29.2 29.2 29.2h116.8c16 0 29.2-13 29.2-29.2s-13-29.2-29.2-29.2c-5.6 0-11.2 1.6-16 4.8-3.2 2.2-7.4 2.2-10.6 0-3.2-2.2-5-6-4.2-9.8 0.2-1.8 0.4-3.4 0.4-4.8 0-16-13-29.2-29.2-29.2-16 0-29.2 13-29.2 29.2 0 1 0 2.2 0.2 3.6 0.4 3.6-1.2 7.2-4.2 9.2-3 2-7 2.2-10 0.6-4.4-2.4-9-3.6-14-3.6z" fill="#402943" /><path d="M765 317.4c-7.8 0-15.2 2.4-21.2 6.4 0.4-2 0.6-4.2 0.6-6.4 0-21.4-17.4-39-39-39s-39 17.4-39 39c0 1.6 0.2 3.2 0.4 4.6-5.4-3-11.8-4.6-18.4-4.6-21.4 0-39 17.4-39 39 0 21.4 17.4 39 39 39h116.8c21.4 0 39-17.4 39-39-0.4-21.6-17.8-39-39.2-39z" fill="#E6E7E8" /><path d="M724.8 317.4c0 2.2-0.2 4.2-0.6 6.4 5.8-3.8 12.6-6 20-6.4 0-21.4-17.4-39-39-39-3.4 0-6.6 0.4-9.8 1.2 17 4.4 29.4 19.6 29.4 37.8zM765 317.4c-3.4 0-6.6 0.4-9.8 1.2 16.8 4.4 29.2 19.6 29.2 37.6 0 21.4-17.4 39-39 39h19.4c21.4 0 39-17.4 39-39 0-21.4-17.4-38.8-38.8-38.8z" fill="#BCBEC0" /><path d="M765 405h-116.8c-26.8 0-48.6-21.8-48.6-48.6s21.8-48.6 48.6-48.6c3.2 0 6.2 0.4 9.2 0.8 4.2-22.6 24-39.8 47.8-39.8 24 0 44 17.4 48 40.4 3.8-1 7.8-1.4 11.8-1.4 26.8 0 48.6 21.8 48.6 48.6s-21.8 48.6-48.6 48.6z m-116.8-77.8c-16 0-29.2 13-29.2 29.2s13 29.2 29.2 29.2h116.8c16 0 29.2-13 29.2-29.2s-13-29.2-29.2-29.2c-5.6 0-11.2 1.6-16 4.8-3.2 2.2-7.4 2.2-10.6 0-3.2-2.2-5-6-4.2-9.8 0.2-1.8 0.4-3.4 0.4-4.8 0-16-13-29.2-29.2-29.2-16 0-29.2 13-29.2 29.2 0 1 0 2.2 0.2 3.4 0.4 3.6-1.2 7.2-4.2 9.2-3 2-7 2.2-10.2 0.6-4.2-2.2-8.8-3.4-13.8-3.4z" fill="#402943" /><path d="M317.4 560.6c-5.4 0-9.8-4.4-9.8-9.8V512c0-5.4 4.4-9.8 9.8-9.8s9.8 4.4 9.8 9.8v39c0 5.2-4.4 9.6-9.8 9.6z" fill="#FFFFFF" /><path d="M336.8 541.2H298c-5.4 0-9.8-4.4-9.8-9.8s4.4-9.8 9.8-9.8h39c5.4 0 9.8 4.4 9.8 9.8-0.2 5.4-4.6 9.8-10 9.8zM239.6 502.2c-5.4 0-9.8-4.4-9.8-9.8v-39c0-5.4 4.4-9.8 9.8-9.8s9.8 4.4 9.8 9.8v39c0 5.6-4.4 9.8-9.8 9.8z" fill="#FFFFFF" /><path d="M259 482.8H220c-5.4 0-9.8-4.4-9.8-9.8s4.4-9.8 9.8-9.8h39c5.4 0 9.8 4.4 9.8 9.8s-4.4 9.8-9.8 9.8z" fill="#FFFFFF" /><path d="M259 619c-5.4 0-9.8-4.4-9.8-9.8v-39c0-5.4 4.4-9.8 9.8-9.8s9.8 4.4 9.8 9.8v39c0 5.4-4.4 9.8-9.8 9.8z" fill="#FFFFFF" /><path d="M278.4 599.6h-39c-5.4 0-9.8-4.4-9.8-9.8s4.4-9.8 9.8-9.8h39c5.4 0 9.8 4.4 9.8 9.8s-4.4 9.8-9.8 9.8z" fill="#FFFFFF" /><path d="M706.6 560.6c5.4 0 9.8-4.4 9.8-9.8V512c0-5.4-4.4-9.8-9.8-9.8s-9.8 4.4-9.8 9.8v39c0 5.2 4.4 9.6 9.8 9.6z" fill="#FFFFFF" /><path d="M687.2 541.2H726c5.4 0 9.8-4.4 9.8-9.8s-4.4-9.8-9.8-9.8h-39c-5.4 0-9.8 4.4-9.8 9.8 0.2 5.4 4.6 9.8 10 9.8zM784.4 502.2c5.4 0 9.8-4.4 9.8-9.8v-39c0-5.4-4.4-9.8-9.8-9.8s-9.8 4.4-9.8 9.8v39c0 5.6 4.4 9.8 9.8 9.8z" fill="#FFFFFF" /><path d="M765 482.8H804c5.4 0 9.8-4.4 9.8-9.8s-4.4-9.8-9.8-9.8h-39c-5.4 0-9.8 4.4-9.8 9.8s4.4 9.8 9.8 9.8z" fill="#FFFFFF" /><path d="M765 619c5.4 0 9.8-4.4 9.8-9.8v-39c0-5.4-4.4-9.8-9.8-9.8s-9.8 4.4-9.8 9.8v39c0 5.4 4.4 9.8 9.8 9.8z" fill="#FFFFFF" /><path d="M745.6 599.6h39c5.4 0 9.8-4.4 9.8-9.8s-4.4-9.8-9.8-9.8h-39c-5.4 0-9.8 4.4-9.8 9.8s4.4 9.8 9.8 9.8z" fill="#FFFFFF" /><path d="M453.6 200.6m-39 0a39 39 0 1 0 78 0 39 39 0 1 0-78 0Z" fill="#FCD64B" /><path d="M453.6 200.6c-14.4 0-27-7.8-33.6-19.4-3.4 5.8-5.2 12.4-5.2 19.4 0 21.4 17.4 39 39 39 21.4 0 39-17.4 39-39 0-7-2-13.8-5.2-19.4-7 11.6-19.6 19.4-34 19.4z" fill="#F5AB33" /><path d="M453.6 249.4c-26.8 0-48.6-21.8-48.6-48.6s21.8-48.6 48.6-48.6 48.6 21.8 48.6 48.6c0 26.6-21.8 48.6-48.6 48.6z m0-78c-16 0-29.2 13-29.2 29.2 0 16 13 29.2 29.2 29.2 16 0 29.2-13 29.2-29.2 0-16-13-29.2-29.2-29.2z" fill="#402943" /><path d="M570.4 200.6m-39 0a39 39 0 1 0 78 0 39 39 0 1 0-78 0Z" fill="#FCD64B" /><path d="M570.4 200.6c-14.4 0-27-7.8-33.6-19.4-3.4 5.8-5.2 12.4-5.2 19.4 0 21.4 17.4 39 39 39 21.4 0 39-17.4 39-39 0-7-2-13.8-5.2-19.4-7 11.6-19.6 19.4-34 19.4z" fill="#F5AB33" /><path d="M570.4 249.4c-26.8 0-48.6-21.8-48.6-48.6s21.8-48.6 48.6-48.6 48.6 21.8 48.6 48.6c0 26.6-21.8 48.6-48.6 48.6z m0-78c-16 0-29.2 13-29.2 29.2 0 16 13 29.2 29.2 29.2 16 0 29.2-13 29.2-29.2 0-16-13.2-29.2-29.2-29.2z" fill="#402943" /><path d="M388 278.4l32.8-38.8" fill="#FCD64B" /><path d="M388 288.2c-2.2 0-4.4-0.8-6.2-2.2-4.2-3.4-4.6-9.6-1.2-13.8l32.8-39c3.4-4.2 9.6-4.6 13.8-1.2 4.2 3.4 4.6 9.6 1.2 13.8l-32.8 39c-2.2 2.2-5 3.4-7.6 3.4z" fill="#402943" /><path d="M636 278.4l-32.8-38.8" fill="#FCD64B" /><path d="M636 288.2c-2.8 0-5.6-1.2-7.4-3.4l-32.8-39c-3.4-4.2-3-10.2 1.2-13.8 4.2-3.4 10.2-3 13.8 1.2l32.8 39c3.4 4.2 3 10.2-1.2 13.8-1.8 1.4-4 2.2-6.4 2.2z" fill="#402943" /></svg>