<svg class="svg-icon" style="width: 1em;height: 1em;vertical-align: middle;fill: currentColor;overflow: hidden;" viewBox="0 0 1024 1024" version="1.1" xmlns="http://www.w3.org/2000/svg"><path d="M862.2 658c21.4 0 39-17.4 39-39 0-21.4-17.4-39-39-39H161.8c-21.4 0-39 17.4-39 39 0 21.4 17.4 39 39 39h700.4z" fill="#4AB5AC" /><path d="M862.2 580.2h-39c21.4 0 39 17.4 39 39 0 21.4-17.4 39-39 39h39c21.4 0 39-17.4 39-39s-17.4-39-39-39z" fill="#3F9991" /><path d="M161.8 658h39c-21.4 0-39-17.4-39-39 0-21.4 17.4-39 39-39H161.8c-21.4 0-39 17.4-39 39S140.2 658 161.8 658z" fill="#5BDED3" /><path d="M862.2 667.6H161.8c-26.8 0-48.6-21.8-48.6-48.6s21.8-48.6 48.6-48.6h700.6c26.8 0 48.6 21.8 48.6 48.6-0.2 26.8-22 48.6-48.8 48.6zM161.8 589.8c-16 0-29.2 13-29.2 29.2 0 16 13 29.2 29.2 29.2h700.6c16 0 29.2-13 29.2-29.2 0-16-13-29.2-29.2-29.2H161.8z" fill="#402943" /><path d="M200.6 735.8c-21.4 0-39-17.4-39-39V658h700.6v39c0 21.4-17.4 39-39 39h-77.8c-10.8 0-19.4 8.8-19.4 19.4 0 10.8 8.8 19.4 19.4 19.4h19.4c21.4 0 39 17.4 39 39 0 21.4-17.4 39-39 39h-506c-21.4 0-39-17.4-39-39 0-21.4 17.4-39 39-39h19.4c10.8 0 19.4-8.8 19.4-19.4 0-10.8-8.8-19.4-19.4-19.4l-77.6-0.2z" fill="#FCD64B" /><path d="M823.4 658v39c0 21.4-17.4 39-39 39h-77.8c-10.8 0-19.4 8.8-19.4 19.4 0 10.8 8.8 19.4 19.4 19.4h19.4c21.4 0 39 17.4 39 39 0 21.4-17.4 39-39 39h39c21.4 0 39-17.4 39-39 0-21.4-17.4-39-39-39h-19.4c-10.8 0-19.4-8.8-19.4-19.4 0-10.8 8.8-19.4 19.4-19.4h77.8c21.4 0 39-17.4 39-39V658h-39z" fill="#F5AB33" /><path d="M200.6 658v39c0 21.4 17.4 39 39 39h77.8c10.8 0 19.4 8.8 19.4 19.4 0 10.8-8.8 19.4-19.4 19.4H298c-21.4 0-39 17.4-39 39 0 21.4 17.4 39 39 39h-39c-21.4 0-39-17.4-39-39 0-21.4 17.4-39 39-39h19.4c10.8 0 19.4-8.8 19.4-19.4 0-10.8-8.8-19.4-19.4-19.4h-77.8c-21.4 0-39-17.4-39-39V658h39z" fill="#FFECA6" /><path d="M706.6 774.6H280.4l12.4-14.6-1-15-11.4-9.2h426.2z" fill="#F5AB33" /><path d="M765 862.2h-506c-26.8 0-48.6-21.8-48.6-48.6s21.8-48.6 48.6-48.6h19.4c5.4 0 9.8-4.4 9.8-9.8s-4.4-9.8-9.8-9.8h-77.8c-26.8 0-48.6-21.8-48.6-48.6V658c0-5.4 4.4-9.8 9.8-9.8h700.6c2.6 0 5 1 6.8 2.8 1.8 1.8 2.8 4.2 2.8 6.8v39c0 26.8-21.8 48.6-48.6 48.6h-77.8c-5.4 0-9.8 4.4-9.8 9.8s4.4 9.8 9.8 9.8h19.4c26.8 0 48.6 21.8 48.6 48.6s-21.8 48.6-48.6 48.6z m-506-77.8c-16 0-29.2 13-29.2 29.2 0 16 13 29.2 29.2 29.2h506c16 0 29.2-13 29.2-29.2 0-16-13-29.2-29.2-29.2h-19.4c-16 0-29.2-13-29.2-29.2 0-16 13-29.2 29.2-29.2h77.8c16 0 29.2-13 29.2-29.2v-29.2H171.4v29.2c0 16 13 29.2 29.2 29.2h77.8c16 0 29.2 13 29.2 29.2 0 16-13 29.2-29.2 29.2h-19.4z" fill="#402943" /><path d="M278.6 745.6c-5.4 0-9.8-4.4-9.8-9.8s4.4-9.8 9.8-9.8h97.2c5.4 0 9.8 4.4 9.8 9.8s-4.4 9.8-9.8 9.8h-97.2zM278.6 784.4c-5.4 0-9.8-4.4-9.8-9.8s4.4-9.8 9.8-9.8h39c5.4 0 9.8 4.4 9.8 9.8s-4.4 9.8-9.8 9.8h-39z" fill="#402943" /><path d="M745.4 745.6h-97.2c-5.4 0-9.8-4.4-9.8-9.8s4.4-9.8 9.8-9.8h97.2c5.4 0 9.8 4.4 9.8 9.8s-4.4 9.8-9.8 9.8zM745.4 784.4h-39c-5.4 0-9.8-4.4-9.8-9.8s4.4-9.8 9.8-9.8h39c5.4 0 9.8 4.4 9.8 9.8s-4.4 9.8-9.8 9.8z" fill="#402943" /><path d="M356.4 833c0 21.4 17.4 39 39 39 21.4 0 39-17.4 39-39V580.2h-77.8v252.8z" fill="#59C3F0" /><path d="M395.2 872c21.4 0 39-17.4 39-39V580.2h-39V872z" fill="#21A0D6" /><path d="M395.2 881.8c-26.8 0-48.6-21.8-48.6-48.6V580.2c0-5.4 4.4-9.8 9.8-9.8h77.8c5.4 0 9.8 4.4 9.8 9.8v253c-0.2 26.6-22 48.6-48.8 48.6z m-29.2-292v243.2c0 16 13 29.2 29.2 29.2 16 0 29.2-13 29.2-29.2V589.8H366z" fill="#402943" /><path d="M589.8 745.4h-116.8c-5.4 0-9.8-4.4-9.8-9.8s4.4-9.8 9.8-9.8h116.8c5.4 0 9.8 4.4 9.8 9.8 0 5.6-4.4 9.8-9.8 9.8z" fill="#402943" /><path d="M628.8 784.4h-194.6c-5.4 0-9.8-4.4-9.8-9.8s4.4-9.8 9.8-9.8h194.6c5.4 0 9.8 4.4 9.8 9.8-0.2 5.4-4.4 9.8-9.8 9.8z" fill="#402943" /><path d="M570.4 191L465.2 366l-58.2-97.2-186.8 311.4h583.6z" fill="#FFFFFF" /><path d="M509.4 504l19.4-32.4-121.8-202.8-19.6 32.4zM570.4 191l-19.4 32.4 214 356.8h38.8z" fill="#E6E7E8" /><path d="M570.4 191l-19.4 32.4 214 356.8h38.8z" fill="#E6E7E8" /><path d="M803.8 589.8H220.2c-3.6 0-6.8-1.8-8.4-5-1.8-3-1.6-6.8 0.2-9.8l186.8-311.4c1.8-3 5-4.8 8.4-4.8 3.4 0 6.6 1.8 8.4 4.8l50 83.4L562 186c1.8-3 5-4.8 8.4-4.8 3.4 0 6.6 1.8 8.4 4.8l233.6 389.2c1.8 3 1.8 6.8 0.2 9.8-2 3-5.2 4.8-8.8 4.8z m-566.4-19.4h549.4L570.4 209.8l-96.8 161.2c-1.8 3-5 4.8-8.4 4.8-3.4 0-6.6-1.8-8.4-4.8l-50-83.4-169.4 282.8z" fill="#402943" /><path d="M523.6 473c-3.4 0-6.6-1.6-8.4-4.8l-116.8-194.6c-2.8-4.6-1.2-10.6 3.4-13.4 4.6-2.8 10.6-1.2 13.4 3.4l116.8 194.6c2.8 4.6 1.2 10.6-3.4 13.4-1.4 1-3.2 1.4-5 1.4z" fill="#402943" /><path d="M278.6 502.2m-39 0a39 39 0 1 0 78 0 39 39 0 1 0-78 0Z" fill="#4AB5AC" /><path d="M278.6 502.2c-14.4 0-27-7.8-33.6-19.4-3.4 5.8-5.2 12.4-5.2 19.4 0 21.4 17.4 39 39 39 21.4 0 39-17.4 39-39 0-7-2-13.8-5.2-19.4-7.2 11.6-19.8 19.4-34 19.4z" fill="#3F9991" /><path d="M278.6 551c-26.8 0-48.6-21.8-48.6-48.6s21.8-48.6 48.6-48.6 48.6 21.8 48.6 48.6c0 26.6-21.8 48.6-48.6 48.6z m0-78c-16 0-29.2 13-29.2 29.2 0 16 13 29.2 29.2 29.2 16 0 29.2-13 29.2-29.2-0.2-16-13.2-29.2-29.2-29.2z" fill="#402943" /><path d="M278.6 589.8c-5.4 0-9.8-4.4-9.8-9.8v-39c0-5.4 4.4-9.8 9.8-9.8s9.8 4.4 9.8 9.8V580c-0.2 5.4-4.6 9.8-9.8 9.8z" fill="#402943" /><path d="M628.8 502.2m-39 0a39 39 0 1 0 78 0 39 39 0 1 0-78 0Z" fill="#4AB5AC" /><path d="M628.8 502.2c-14.4 0-27-7.8-33.6-19.4-3.4 5.8-5.2 12.4-5.2 19.4 0 21.4 17.4 39 39 39 21.4 0 39-17.4 39-39 0-7-2-13.8-5.2-19.4-7.2 11.6-19.6 19.4-34 19.4z" fill="#3F9991" /><path d="M628.8 551c-26.8 0-48.6-21.8-48.6-48.6s21.8-48.6 48.6-48.6 48.6 21.8 48.6 48.6c0 26.6-21.8 48.6-48.6 48.6z m0-78c-16 0-29.2 13-29.2 29.2 0 16 13 29.2 29.2 29.2 16 0 29.2-13 29.2-29.2 0-16-13.2-29.2-29.2-29.2z" fill="#402943" /><path d="M628.8 589.8c-5.4 0-9.8-4.4-9.8-9.8v-39c0-5.4 4.4-9.8 9.8-9.8s9.8 4.4 9.8 9.8V580c-0.2 5.4-4.4 9.8-9.8 9.8z" fill="#402943" /><path d="M745.6 502.2m-39 0a39 39 0 1 0 78 0 39 39 0 1 0-78 0Z" fill="#4AB5AC" /><path d="M745.6 502.2c-14.4 0-27-7.8-33.6-19.4-3.4 5.8-5.2 12.4-5.2 19.4 0 21.4 17.4 39 39 39 21.4 0 39-17.4 39-39 0-7-2-13.8-5.2-19.4-7.2 11.6-19.8 19.4-34 19.4z" fill="#3F9991" /><path d="M745.6 551c-26.8 0-48.6-21.8-48.6-48.6s21.8-48.6 48.6-48.6 48.6 21.8 48.6 48.6c0 26.6-21.8 48.6-48.6 48.6z m0-78c-16 0-29.2 13-29.2 29.2 0 16 13 29.2 29.2 29.2s29.2-13 29.2-29.2c-0.2-16-13.2-29.2-29.2-29.2z" fill="#402943" /><path d="M745.6 589.8c-5.4 0-9.8-4.4-9.8-9.8v-39c0-5.4 4.4-9.8 9.8-9.8s9.8 4.4 9.8 9.8V580c-0.2 5.4-4.6 9.8-9.8 9.8z" fill="#402943" /><path d="M356.4 259c-5.4 0-9.8-4.4-9.8-9.8v-39c0-5.4 4.4-9.8 9.8-9.8s9.8 4.4 9.8 9.8v39c-0.2 5.4-4.4 9.8-9.8 9.8z" fill="#402943" /><path d="M375.8 239.6h-39c-5.4 0-9.8-4.4-9.8-9.8s4.4-9.8 9.8-9.8h39c5.4 0 9.8 4.4 9.8 9.8s-4.4 9.8-9.8 9.8zM278.4 200.6c-5.4 0-9.8-4.4-9.8-9.8V152c0-5.4 4.4-9.8 9.8-9.8s9.8 4.4 9.8 9.8v39c0 5.4-4.4 9.6-9.8 9.6z" fill="#402943" /><path d="M298 181.2h-39c-5.4 0-9.8-4.4-9.8-9.8s4.4-9.8 9.8-9.8H298c5.4 0 9.8 4.4 9.8 9.8-0.2 5.4-4.4 9.8-9.8 9.8z" fill="#402943" /><path d="M298 317.4c-5.4 0-9.8-4.4-9.8-9.8v-39c0-5.4 4.4-9.8 9.8-9.8s9.8 4.4 9.8 9.8v39c-0.2 5.4-4.4 9.8-9.8 9.8z" fill="#402943" /><path d="M317.4 298h-39c-5.4 0-9.8-4.4-9.8-9.8s4.4-9.8 9.8-9.8h39c5.4 0 9.8 4.4 9.8 9.8s-4.4 9.8-9.8 9.8z" fill="#402943" /></svg>